<svg width="24" height="24" viewBox="0 0 24 24" fill="none" xmlns="http://www.w3.org/2000/svg">
<path opacity="0.4" d="M11.0002 2H9.00018C4.00018 2 2.00018 4 2.00018 9V15C2.00018 20 4.00018 22 9.00018 22H15.0002C20.0002 22 22.0002 20 22.0002 15V13" stroke="#7E94CB" stroke-width="1.5" stroke-linecap="round" stroke-linejoin="round"/>
<path d="M16.0402 3.01976L8.16018 10.8998C7.86018 11.1998 7.56018 11.7898 7.50018 12.2198L7.07018 15.2298C6.91018 16.3198 7.68018 17.0798 8.77018 16.9298L11.7802 16.4998C12.2002 16.4398 12.7902 16.1398 13.1002 15.8398L20.9802 7.95976C22.3402 6.59976 22.9802 5.01976 20.9802 3.01976C18.9802 1.01976 17.4002 1.65976 16.0402 3.01976Z" stroke="#7E94CB" stroke-width="1.5" stroke-miterlimit="10" stroke-linecap="round" stroke-linejoin="round"/>
<path opacity="0.4" d="M14.9102 4.1499C15.5802 6.5399 17.4502 8.4099 19.8502 9.0899" stroke="#7E94CB" stroke-width="1.5" stroke-miterlimit="10" stroke-linecap="round" stroke-linejoin="round"/>
</svg>
