<svg width="90" height="90" viewBox="0 0 90 90" fill="none" xmlns="http://www.w3.org/2000/svg">
<path opacity="0.15" d="M0 35.928C0 6.34129 6.34129 0 35.928 0H54.072C83.6587 0 90 6.34129 90 35.928V54.072C90 83.6587 83.6587 90 54.072 90H35.928C6.34129 90 0 83.6587 0 54.072V35.928Z" fill="white"/>
<path opacity="0.4" d="M44.7528 48.1814C48.02 48.1814 50.6685 45.5623 50.6685 42.3314C50.6685 39.1006 48.02 36.4814 44.7528 36.4814C41.4856 36.4814 38.8371 39.1006 38.8371 42.3314C38.8371 45.5623 41.4856 48.1814 44.7528 48.1814Z" stroke="white" stroke-width="2"/>
<path d="M28.8638 38.9188C32.599 22.6813 56.9256 22.7 60.6418 38.9375C62.8223 48.4625 56.8308 56.525 51.5786 61.5125C47.7676 65.15 41.7381 65.15 37.908 61.5125C32.6749 56.525 26.6833 48.4438 28.8638 38.9188Z" stroke="white" stroke-width="2"/>
</svg>
