<svg width="24" height="24" viewBox="0 0 24 24" fill="none" xmlns="http://www.w3.org/2000/svg">
<path d="M20.0002 7V17C20.0002 21 19.0002 22 15.0002 22H9.00018C5.00018 22 4.00018 21 4.00018 17V7C4.00018 3 5.00018 2 9.00018 2H15.0002C19.0002 2 20.0002 3 20.0002 7Z" stroke="#7E94CB" stroke-width="1.5" stroke-linecap="round" stroke-linejoin="round"/>
<path opacity="0.4" d="M14.0002 5.5H10.0002" stroke="#7E94CB" stroke-width="1.5" stroke-linecap="round" stroke-linejoin="round"/>
<path opacity="0.4" d="M12.0002 19.1C12.8562 19.1 13.5502 18.406 13.5502 17.55C13.5502 16.694 12.8562 16 12.0002 16C11.1442 16 10.4502 16.694 10.4502 17.55C10.4502 18.406 11.1442 19.1 12.0002 19.1Z" stroke="#7E94CB" stroke-width="1.5" stroke-linecap="round" stroke-linejoin="round"/>
</svg>
