<svg width="90" height="90" viewBox="0 0 90 90" fill="none" xmlns="http://www.w3.org/2000/svg">
<path opacity="0.15" d="M0 35.928C0 6.34129 6.34129 0 35.928 0H54.072C83.6587 0 90 6.34129 90 35.928V54.072C90 83.6587 83.6587 90 54.072 90H35.928C6.34129 90 0 83.6587 0 54.072V35.928Z" fill="white"/>
<path d="M60.3333 36.125V54.875C60.3333 62.375 58.4167 64.25 50.75 64.25H39.25C31.5833 64.25 29.6667 62.375 29.6667 54.875V36.125C29.6667 28.625 31.5833 26.75 39.25 26.75H50.75C58.4167 26.75 60.3333 28.625 60.3333 36.125Z" stroke="white" stroke-width="2" stroke-linecap="round" stroke-linejoin="round"/>
<path opacity="0.4" d="M48.8333 33.3125H41.1667" stroke="white" stroke-width="2" stroke-linecap="round" stroke-linejoin="round"/>
<path opacity="0.4" d="M45 58.8125C46.6407 58.8125 47.9708 57.5113 47.9708 55.9062C47.9708 54.3012 46.6407 53 45 53C43.3593 53 42.0292 54.3012 42.0292 55.9062C42.0292 57.5113 43.3593 58.8125 45 58.8125Z" stroke="white" stroke-width="2" stroke-linecap="round" stroke-linejoin="round"/>
</svg>
