<svg width="24" height="27" viewBox="0 0 24 27" fill="none" xmlns="http://www.w3.org/2000/svg">
<path opacity="0.4" d="M12.1202 14.3616C12.0502 14.351 11.9602 14.351 11.8802 14.3616C10.1202 14.2978 8.72015 12.7659 8.72015 10.8829C8.72015 8.95738 10.1802 7.39355 12.0002 7.39355C13.8102 7.39355 15.2802 8.95738 15.2802 10.8829C15.2702 12.7659 13.8802 14.2978 12.1202 14.3616Z" stroke="#7E94CB" stroke-width="1.5" stroke-linecap="round" stroke-linejoin="round"/>
<path opacity="0.34" d="M18.7402 21.3833C16.9602 23.1174 14.6002 24.1706 12.0002 24.1706C9.40019 24.1706 7.04019 23.1174 5.26019 21.3833C5.36019 20.3833 5.96019 19.4046 7.03019 18.6387C9.77019 16.7025 14.2502 16.7025 16.9702 18.6387C18.0402 19.4046 18.6402 20.3833 18.7402 21.3833Z" stroke="#7E94CB" stroke-width="1.5" stroke-linecap="round" stroke-linejoin="round"/>
<path d="M12.0002 24.1702C17.523 24.1702 22.0002 19.4072 22.0002 13.5319C22.0002 7.65648 17.523 2.89355 12.0002 2.89355C6.47734 2.89355 2.00018 7.65648 2.00018 13.5319C2.00018 19.4072 6.47734 24.1702 12.0002 24.1702Z" stroke="#7E94CB" stroke-width="1.5" stroke-linecap="round" stroke-linejoin="round"/>
</svg>
