<svg width="182" height="54" viewBox="0 0 182 54" fill="none" xmlns="http://www.w3.org/2000/svg">
<g clip-path="url(#clip0_138_729)">
<path d="M74.3977 44.6423V45.2683L74.3166 45.374H72.8065V44.7887C72.3519 45.0651 71.946 45.2114 71.5806 45.2114C71.1828 45.2114 70.8743 45.1057 70.6551 44.8862C70.4359 44.6667 70.3141 44.374 70.3141 44.0163C70.3141 43.6586 70.4034 43.2846 70.5902 42.9025L72.7984 42.2846V41.6342H73.5291V44.5448H74.3084L74.3896 44.6505L74.3977 44.6423ZM71.1828 41.2521L70.6389 40.6179L71.3208 40.0488L71.8079 40.6261L72.4899 40.057L73.0257 40.6911L72.3438 41.2602L71.8567 40.683L71.1828 41.2521ZM71.7024 44.3984C72.0677 44.3984 72.4331 44.309 72.8065 44.122V42.9675L71.061 43.4472C71.0286 43.5692 71.0123 43.6992 71.0123 43.8374C71.0123 44.2114 71.2397 44.4066 71.7024 44.4066V44.3984Z" fill="black"/>
<path d="M77.4178 44.626V45.2927L77.3366 45.374H77.1824C76.8576 45.374 76.5248 45.2114 76.1838 44.8781L75.8834 45.374H74.3247L74.211 45.2602V44.626L74.3247 44.5366H75.6967V42.3496H76.4436V44.3415C76.6384 44.4716 76.8901 44.5366 77.2148 44.5366H77.3366L77.4178 44.626ZM75.1527 46.0651L75.6967 46.7236L75.0147 47.2927L74.4708 46.6342L75.1527 46.0651ZM76.3786 46.0651L76.9226 46.7236L76.2487 47.2927L75.6967 46.6342L76.3786 46.0651Z" fill="black"/>
<path d="M78.6518 42.073H79.3906V45.3739H77.3366L77.223 45.26V44.6259L77.3366 44.5365H78.6518V42.073ZM78.9116 41.4145L78.3677 40.7722L79.0577 40.2031L79.5936 40.8454L78.9116 41.4145Z" fill="black"/>
<path d="M84.5864 44.6262V45.2441L84.5052 45.3742H83.8314C83.669 46.5612 83.0277 47.1547 81.8911 47.1547C81.5339 47.1547 81.1766 47.0734 80.8194 46.9108L80.7382 46.2035L80.7951 46.1547C81.1766 46.2848 81.5744 46.3498 81.9966 46.3498C82.3376 46.3498 82.5974 46.2766 82.7841 46.1384C82.9708 46.0002 83.0845 45.7401 83.1413 45.3742C81.9317 45.2766 81.063 44.862 80.519 44.1222C80.6652 43.4718 80.8925 42.9433 81.2172 42.5205C81.542 42.1059 81.8829 41.8945 82.2564 41.8945C82.5162 41.8945 82.7435 41.9758 82.9546 42.1303C83.1575 42.2848 83.328 42.4962 83.4579 42.7563C83.5878 43.0165 83.6852 43.301 83.7583 43.6019C83.8314 43.9027 83.872 44.2197 83.8801 44.5449H84.5133L84.5945 44.6262H84.5864ZM82.1427 42.7482C81.9804 42.7482 81.818 42.8539 81.6475 43.049C81.477 43.2523 81.339 43.5124 81.2416 43.8376C81.6475 44.236 82.2889 44.4636 83.1575 44.5287C83.1251 44.0327 83.0195 43.6018 82.849 43.2604C82.6786 42.9189 82.4431 42.7401 82.1346 42.7401L82.1427 42.7482Z" fill="black"/>
<path d="M85.8205 42.073H86.5592V45.3739H84.5053L84.3916 45.26V44.6259L84.5053 44.5365H85.8205V42.073ZM86.0802 41.4145L85.5363 40.7722L86.2264 40.2031L86.7622 40.8454L86.0802 41.4145Z" fill="black"/>
<path d="M89.5955 44.6343V45.2847L89.5143 45.3742H87.9069V39.1953H88.6456V44.5286H89.5143L89.5955 44.6262V44.6343Z" fill="black"/>
<path d="M94.012 44.61V45.3011L93.9308 45.3742H93.5168C92.9728 45.3742 92.4451 45.2604 91.9337 45.0246C91.4303 45.2523 90.8133 45.3742 90.0826 45.3742H89.5144L89.4332 45.2685V44.6507L89.5144 44.5368H91.1137C90.7159 44.236 90.4074 43.8864 90.1963 43.4637C90.3587 42.9271 90.5941 42.5124 90.9188 42.2198C91.2355 41.9271 91.5764 41.7807 91.9337 41.7807C92.3396 41.7807 92.6724 41.9189 92.9241 42.2035C93.1758 42.4881 93.3057 42.8295 93.3057 43.2441C93.3057 43.7238 93.119 44.1466 92.7536 44.5124C92.9403 44.5368 93.2245 44.545 93.6061 44.545H93.9389L94.0201 44.6181L94.012 44.61ZM91.0569 41.1222L90.5129 40.4881L91.1949 39.9189L91.682 40.4962L92.3639 39.9271L92.8998 40.5612L92.2178 41.1303L91.7307 40.5531L91.0569 41.1222ZM91.7875 42.5937C91.6089 42.5937 91.4384 42.6588 91.2761 42.797C91.1137 42.9352 90.9838 43.1059 90.8783 43.3173C91.138 43.7726 91.5358 44.1059 92.0554 44.3173C92.2259 44.1954 92.3558 44.0572 92.4532 43.8946C92.5507 43.732 92.5913 43.5694 92.5913 43.4149C92.5913 43.171 92.5182 42.9759 92.3802 42.8214C92.234 42.6669 92.0392 42.5937 91.7875 42.5937Z" fill="black"/>
<path d="M95.5788 39.1953V45.3742H93.9227L93.8334 45.2847V44.6343L93.9227 44.5368H94.8076V39.2034H95.5707L95.5788 39.1953Z" fill="black"/>
<path d="M97.7384 45.3742H96.9996V39.1953H97.7384V45.3742Z" fill="black"/>
<path d="M106.652 42.073V45.3738H102.845C101.4 45.3738 100.685 44.7641 100.685 43.5446C100.685 43.2194 100.75 42.8779 100.872 42.5039L101.44 42.3901L101.497 42.4389C101.416 42.8047 101.375 43.1056 101.375 43.3576C101.375 43.7641 101.497 44.0649 101.741 44.2438C101.984 44.4226 102.415 44.5202 103.04 44.5202H105.914V42.0568H106.652V42.073ZM103.162 41.8942L102.618 41.26L103.3 40.6909L103.787 41.2682L104.469 40.699L105.004 41.3332L104.322 41.9023L103.835 41.3251L103.162 41.8942Z" fill="black"/>
<path d="M108.731 45.3742H107.992V39.1953H108.731V45.3742Z" fill="black"/>
<path d="M111.475 42.3413V45.195C111.475 46.5039 110.98 47.1543 109.981 47.1543C109.77 47.1543 109.559 47.1055 109.364 47.0161L109.234 46.3007L109.291 46.2519C109.502 46.3169 109.746 46.3494 110.013 46.3494C110.257 46.3494 110.444 46.2681 110.566 46.1137C110.687 45.9592 110.744 45.699 110.744 45.3332V42.3413H111.475Z" fill="black"/>
<path d="M114.398 44.6343V45.2847L114.316 45.3742H112.709V39.1953H113.448V44.5286H114.316L114.398 44.6262V44.6343Z" fill="black"/>
<path d="M121.063 44.6259V45.2925L120.982 45.3738H120.827C120.494 45.3738 120.178 45.2275 119.877 44.9267L119.593 45.3738C118.871 45.3738 118.238 45.2112 117.702 44.8942L117.377 45.3738C116.792 45.3738 116.281 45.2194 115.843 44.9185L115.778 45.3738H114.316L114.235 45.3088V44.6015L114.316 44.5364H115.185L115.477 42.4551H116.216L115.94 44.3088C116.281 44.4551 116.679 44.5364 117.142 44.5364L117.401 42.4551H118.14L117.905 44.3332C118.286 44.4633 118.765 44.5283 119.342 44.5364C119.244 43.7641 119.131 43.0242 118.993 42.3007L119.731 42.1381C119.877 42.9755 119.991 43.7072 120.08 44.3413C120.267 44.4714 120.527 44.5364 120.852 44.5364H120.973L121.055 44.6259H121.063ZM116.979 41.6177L116.443 40.9836L117.117 40.4145L117.645 41.0486L116.979 41.6177ZM117.612 40.5202L117.093 39.8942L117.75 39.3413L118.27 39.9673L117.612 40.5202ZM117.629 40.9917L118.302 40.4307L118.83 41.0649L118.164 41.6259L117.629 40.9917Z" fill="black"/>
<path d="M124.083 44.6262V45.2929L124.002 45.3742H123.847C123.523 45.3742 123.19 45.2116 122.849 44.8783L122.548 45.3742H120.99L120.876 45.2604V44.6262L120.99 44.5368H122.362V42.3498H123.109V44.3417C123.303 44.4718 123.555 44.5368 123.88 44.5368H124.002L124.083 44.6262ZM121.98 41.5856L121.436 40.9514L122.118 40.3823L122.605 40.9596L123.287 40.3905L123.823 41.0246L123.141 41.5937L122.654 41.0165L121.98 41.5856Z" fill="black"/>
<path d="M129.806 44.5449L129.279 45.366C128.556 45.366 127.923 45.2034 127.387 44.8864L127.062 45.366C126.462 45.366 125.95 45.2116 125.512 44.8945L125.439 45.366H124.002L123.92 45.301V44.5937L124.002 44.5286H124.854L125.163 42.4473H125.901L125.609 44.2929C125.95 44.4473 126.356 44.5286 126.827 44.5286L127.087 42.4473H127.825L127.59 44.3254C127.972 44.4555 128.459 44.5205 129.035 44.5286C128.938 43.7725 128.808 42.992 128.637 42.1872L129.376 42.0083C129.555 42.8782 129.693 43.7238 129.798 44.5449H129.806Z" fill="black"/>
<path d="M133.736 42.6748C134.255 43.3252 134.653 43.9594 134.921 44.5854L134.572 45.3659H130.91L130.634 44.6423L130.651 44.5529C131.495 44.0894 132.193 43.5285 132.737 42.8781L132.851 42.7399C132.331 42.1789 131.625 41.5447 130.748 40.8293V40.7642L131.276 40.2927C132.096 40.9675 132.745 41.5691 133.232 42.1057C133.435 41.6423 133.533 41.0081 133.533 40.2114V39.187H134.263V40.0895C134.263 41.2033 134.085 42.0651 133.728 42.6667L133.736 42.6748ZM133.305 43.2521L133.232 43.3415C132.835 43.8049 132.315 44.2114 131.674 44.5691H134.207C133.987 44.1545 133.687 43.7155 133.313 43.2521H133.305Z" fill="black"/>
<path d="M136.61 45.3742H135.871V39.1953H136.61V45.3742Z" fill="black"/>
<path d="M139.54 41.8862C139.889 41.8862 140.198 42.0326 140.45 42.3334C140.701 42.6342 140.888 42.9919 140.994 43.4066C141.099 43.8212 141.156 44.2521 141.156 44.7155C141.156 46.3415 140.498 47.1545 139.175 47.1545C138.802 47.1545 138.444 47.0732 138.103 46.9187L137.974 46.2033L138.03 46.1545C138.412 46.2846 138.826 46.3496 139.281 46.3496C139.613 46.3496 139.873 46.2765 140.06 46.1464C140.247 46.0082 140.36 45.7643 140.417 45.4147C139.224 45.309 138.347 44.8781 137.803 44.1383C137.949 43.4879 138.176 42.9513 138.501 42.5285C138.826 42.1057 139.167 41.8944 139.54 41.8944V41.8862ZM138.534 43.8537C138.972 44.2927 139.613 44.5448 140.458 44.6017C140.442 44.2683 140.401 43.9757 140.328 43.7074C140.255 43.4391 140.141 43.2114 139.987 43.0244C139.833 42.8374 139.646 42.7399 139.435 42.7399C139.272 42.7399 139.11 42.8456 138.948 43.0488C138.777 43.2602 138.647 43.5204 138.542 43.8456L138.534 43.8537Z" fill="black"/>
<path d="M145.491 41.6016H145.564C146.198 42.6829 146.701 43.5773 147.058 44.2927L146.758 45.1464C146.311 45.374 145.848 45.496 145.369 45.496C144.89 45.496 144.541 45.3821 144.273 45.1545C144.006 44.9269 143.868 44.6423 143.868 44.3008C143.868 43.9594 143.981 43.6179 144.209 43.3171C144.436 43.0163 144.752 42.7073 145.142 42.3984C145.053 42.2683 144.972 42.1545 144.923 42.0732L145.491 41.6016ZM144.777 41.2277L144.233 40.5935L144.915 40.0244L145.402 40.6016L146.084 40.0325L146.62 40.6667L145.938 41.2358L145.451 40.6586L144.777 41.2277ZM144.566 44.0895C144.566 44.2521 144.647 44.3903 144.817 44.496C144.988 44.6016 145.215 44.6586 145.499 44.6586C145.784 44.6586 146.084 44.6017 146.36 44.4878C146.043 43.9106 145.751 43.3903 145.483 42.9431C145.231 43.1138 145.012 43.3008 144.834 43.5122C144.655 43.7236 144.566 43.9187 144.566 44.0976V44.0895Z" fill="black"/>
<path d="M149.9 44.6343V45.2847L149.818 45.3742H148.211V39.1953H148.95V44.5286H149.818L149.9 44.6262V44.6343Z" fill="black"/>
<path d="M152.603 41.9917C152.968 41.9917 153.261 42.1543 153.488 42.4876C153.715 42.821 153.829 43.2356 153.829 43.7478C153.829 44.1787 153.723 44.5852 153.52 44.9673L152.944 45.5202L151.069 44.6665C150.898 44.9267 150.728 45.1055 150.549 45.2112C150.37 45.3169 150.151 45.3738 149.883 45.3738H149.818L149.737 45.2519V44.6746L149.818 44.5364H149.948C150.143 44.5364 150.314 44.4632 150.443 44.3169C150.573 44.1706 150.744 43.9023 150.947 43.512C151.199 43.0323 151.458 42.6584 151.718 42.3901C151.978 42.1299 152.27 41.9917 152.595 41.9917H152.603ZM151.426 44.0242L152.944 44.7234C153.066 44.447 153.123 44.1706 153.123 43.886C153.123 43.5608 153.058 43.3088 152.936 43.1136C152.814 42.9185 152.652 42.8291 152.449 42.8291C152.286 42.8291 152.132 42.9185 151.986 43.0893C151.84 43.26 151.677 43.5364 151.483 43.9104L151.418 44.0242H151.426Z" fill="black"/>
<path d="M156.752 44.6343V45.2847L156.67 45.3742H155.063V39.1953H155.802V44.5286H156.67L156.752 44.6262V44.6343Z" fill="black"/>
<path d="M161.931 44.6177V45.3087L161.85 45.3738H161.16C160.665 45.3738 160.251 45.1461 159.934 44.699C159.406 44.9266 158.952 45.0973 158.57 45.2112C158.189 45.325 157.774 45.3738 157.32 45.3738H156.678L156.565 45.2599V44.6502L156.678 44.5364H157.377C157.604 44.5364 157.815 44.5282 158.002 44.5038C158.189 44.4795 158.391 44.4388 158.611 44.3738C158.83 44.3087 158.984 44.2518 159.082 44.2274C159.171 44.1949 159.366 44.1217 159.666 43.9917C159.958 43.8697 160.153 43.7884 160.234 43.7559C159.699 43.3819 159.293 43.1299 159.025 42.9917C158.757 42.8616 158.465 42.7884 158.164 42.7884C157.888 42.7884 157.596 42.8372 157.304 42.9429L157.231 42.9022V42.1786C157.628 42.016 157.969 41.9429 158.27 41.9429C158.619 41.9429 159 42.073 159.414 42.3331C159.828 42.5933 160.389 43.016 161.111 43.6014L160.924 44.2843L160.575 44.4307C160.721 44.5038 160.924 44.5364 161.168 44.5364H161.866L161.947 44.6177H161.931Z" fill="black"/>
<path d="M166.745 44.6258V45.2925L166.664 45.3738H166.51C166.177 45.3738 165.861 45.2356 165.552 44.951V44.9673L164.967 45.5202L163.092 44.6665C162.922 44.9267 162.751 45.1055 162.573 45.2112C162.394 45.3169 162.175 45.3738 161.907 45.3738H161.842L161.761 45.2519V44.6746L161.842 44.5364H161.972C162.167 44.5364 162.337 44.4632 162.467 44.3169C162.597 44.1706 162.767 43.9023 162.97 43.512C163.222 43.0323 163.482 42.6584 163.742 42.3901C164.001 42.1299 164.294 41.9917 164.618 41.9917C164.984 41.9917 165.276 42.1543 165.503 42.4876C165.731 42.821 165.844 43.2356 165.844 43.7478C165.844 43.951 165.82 44.1543 165.771 44.3657C165.95 44.4714 166.201 44.5283 166.526 44.5283H166.648L166.729 44.6177L166.745 44.6258ZM163.457 44.0323L164.976 44.7315C165.097 44.4551 165.154 44.1787 165.154 43.8941C165.154 43.5689 165.089 43.3169 164.967 43.1218C164.846 42.9267 164.683 42.8372 164.48 42.8372C164.318 42.8372 164.164 42.9267 164.018 43.0974C163.871 43.2681 163.709 43.5445 163.514 43.9185L163.449 44.0323H163.457Z" fill="black"/>
<path d="M169.489 44.6259V45.2926L169.408 45.3739H169.303C168.937 45.3739 168.596 45.2194 168.28 44.9023L168.004 45.3739H166.664L166.551 45.26V44.6259L166.664 44.5365H167.809V39.2031H168.556V44.3332C168.734 44.4714 168.994 44.5365 169.335 44.5365H169.408L169.489 44.6259Z" fill="black"/>
<path d="M171.032 39.1953V45.3742H169.376L169.286 45.2847V44.6343L169.376 44.5368H170.261V39.2034H171.024L171.032 39.1953Z" fill="black"/>
<path d="M72.3844 51.1384L72.4818 51.1709C73.0663 51.3742 73.4641 51.5774 73.6914 51.7969C73.9188 52.0164 74.0243 52.3091 74.0243 52.675C74.0243 52.9758 73.9431 53.2847 73.7808 53.6018C73.6346 53.7237 73.4317 53.8213 73.1719 53.8945C72.9121 53.9677 72.636 54.0002 72.3357 54.0002C71.7268 54.0002 71.2153 53.9189 70.7932 53.7563V53.1384L70.8419 53.114C71.329 53.2929 71.8486 53.3823 72.3763 53.3823C72.7254 53.3823 73.0257 53.3254 73.2693 53.2034C73.318 53.0327 73.3424 52.8782 73.3424 52.7563C73.3424 52.5611 73.2612 52.4067 73.1069 52.2847C72.9446 52.1628 72.6523 52.0246 72.222 51.8701L72.1489 51.8457C71.6131 51.6587 71.2478 51.4555 71.0529 51.2359C70.8581 51.0164 70.7526 50.7075 70.7526 50.3172C70.7526 50.0164 70.8337 49.7237 70.9961 49.4473C71.3777 49.1546 71.881 49.0083 72.5143 49.0083C73.0176 49.0083 73.4479 49.0896 73.8051 49.2522V49.8701L73.7564 49.8945C73.3099 49.7237 72.8715 49.6343 72.4493 49.6343C72.1165 49.6343 71.7998 49.7075 71.5157 49.862C71.4589 50.0164 71.4345 50.1465 71.4345 50.2603C71.4345 50.4717 71.4995 50.6424 71.6375 50.7644C71.7674 50.8945 72.019 51.0164 72.3925 51.1465L72.3844 51.1384Z" fill="black"/>
<path d="M81.2822 50.5205V53.8945H80.6977L80.6409 53.6262C80.2674 53.8701 79.8939 53.9921 79.5205 53.9921C78.7492 53.9921 78.3677 53.6262 78.3677 52.9026V50.5205H79.0496V52.7644C79.0496 53.1628 79.2688 53.366 79.6991 53.366C80.0157 53.366 80.3161 53.2522 80.6003 53.0327V50.5205H81.2822Z" fill="black"/>
<path d="M88.7431 53.8131V53.8944H87.9637L86.543 52.244V53.8944H85.861V48.7725H86.543V52.0326L87.9069 50.5204H88.6213V50.6017L87.2412 52.0733L88.735 53.805L88.7431 53.8131Z" fill="black"/>
<path d="M94.2718 50.4229C95.2704 50.4229 95.7737 50.992 95.7737 52.1139C95.7737 52.7724 95.6357 53.309 95.3678 53.7237C95.0025 53.9025 94.6209 53.992 94.2393 53.992C93.2408 53.992 92.7374 53.431 92.7374 52.3009C92.7374 51.6749 92.8754 51.1302 93.1434 50.683C93.5168 50.5123 93.8984 50.4229 94.2799 50.4229H94.2718ZM94.8969 53.2684C95.0268 52.9432 95.0918 52.5773 95.0918 52.1789C95.0918 51.4066 94.8158 51.0163 94.2718 51.0163C94.0364 51.0163 93.8091 51.057 93.6061 51.1383C93.4762 51.4635 93.4113 51.8294 93.4113 52.2277C93.4113 53.0001 93.6873 53.3903 94.2312 53.3903C94.4667 53.3903 94.694 53.3497 94.8969 53.2684Z" fill="black"/>
<path d="M101.408 50.4229C102.407 50.4229 102.91 50.992 102.91 52.1139C102.91 52.7724 102.772 53.309 102.504 53.7237C102.139 53.9025 101.757 53.992 101.375 53.992C100.377 53.992 99.8735 53.431 99.8735 52.3009C99.8735 51.6749 100.012 51.1302 100.279 50.683C100.653 50.5123 101.034 50.4229 101.416 50.4229H101.408ZM102.033 53.2684C102.163 52.9432 102.228 52.5773 102.228 52.1789C102.228 51.4066 101.952 51.0163 101.408 51.0163C101.172 51.0163 100.945 51.057 100.742 51.1383C100.612 51.4635 100.547 51.8294 100.547 52.2277C100.547 53.0001 100.823 53.3903 101.367 53.3903C101.603 53.3903 101.83 53.3497 102.033 53.2684Z" fill="black"/>
<path d="M110.103 53.8131V53.8944H109.323L107.903 52.244V53.8944H107.221V48.7725H107.903V52.0326L109.267 50.5204H109.981V50.6017L108.601 52.0733L110.095 53.805L110.103 53.8131Z" fill="black"/>
<path d="M122.305 53.2764V53.8943H119.439V49.1138H120.137V53.2764H122.305Z" fill="black"/>
<path d="M129.011 51.6668V53.0245C129.011 53.3172 129.068 53.5855 129.181 53.8375L129.157 53.9026H128.499C128.467 53.8375 128.442 53.7562 128.418 53.6749C128.118 53.8944 127.785 54.0001 127.411 54.0001C127.038 54.0001 126.754 53.9107 126.559 53.7399C126.356 53.5692 126.259 53.3172 126.259 53.0001C126.259 52.74 126.324 52.4798 126.453 52.2278C126.941 52.0977 127.582 52.0245 128.361 52.0082V51.7725C128.361 51.5123 128.304 51.3253 128.183 51.2196C128.061 51.1058 127.882 51.0489 127.647 51.0489C127.33 51.0489 126.949 51.1139 126.51 51.244L126.462 51.2196V50.6424C126.924 50.5123 127.355 50.4473 127.761 50.4473C128.199 50.4473 128.524 50.5367 128.719 50.7237C128.921 50.9107 129.019 51.2278 129.019 51.6749L129.011 51.6668ZM127.541 53.4798C127.801 53.4798 128.069 53.3985 128.353 53.244V52.4473C127.785 52.4717 127.322 52.5123 126.965 52.5773C126.916 52.683 126.892 52.805 126.892 52.9269C126.892 53.3009 127.111 53.4879 127.549 53.4879L127.541 53.4798Z" fill="black"/>
<path d="M138.258 50.5205L137.251 53.8945H136.334L135.627 51.2847L134.905 53.8945H134.02L133.062 50.5205H133.793L134.515 53.236L135.27 50.5205H136.123L136.837 53.236L137.592 50.5205H138.266H138.258Z" fill="black"/>
<path d="M148.081 49.7398V51.1951H150.241V51.813H148.081V53.8943H147.383V49.1138H150.379V49.7317H148.081V49.7398Z" fill="black"/>
<path d="M155.112 49.9921L154.584 49.4718L155.112 48.9434L155.631 49.4718L155.112 49.9921ZM155.453 50.5206V53.8946H154.771V50.5206H155.453Z" fill="black"/>
<path d="M161.866 50.4229V51.0733C161.46 51.0733 161.087 51.1708 160.762 51.3741V53.8944H160.08V50.5204H160.665L160.73 50.7887C161.119 50.5448 161.493 50.4229 161.866 50.4229Z" fill="black"/>
<path d="M169.928 50.423C170.667 50.423 171.032 50.797 171.032 51.5368V53.8945H170.35V51.6994C170.35 51.2929 170.147 51.0815 169.741 51.0815C169.433 51.0815 169.14 51.1872 168.864 51.4067V53.8864H168.191V51.6913C168.191 51.2848 167.988 51.0734 167.582 51.0734C167.265 51.0734 166.973 51.1791 166.705 51.3905V53.8783H166.023V50.5043H166.607L166.672 50.797C167.03 50.5368 167.395 50.4067 167.76 50.4067C168.239 50.4067 168.564 50.5612 168.726 50.8783C169.124 50.5612 169.522 50.4067 169.92 50.4067L169.928 50.423Z" fill="black"/>
<path d="M28.4228 9.66667H12.1777L16.3181 2.35772L12.1615 0L3.98617 14.4472H28.4228C32.2304 14.4472 35.3316 17.5528 35.3316 21.3659C35.3316 25.1789 32.2304 28.2846 28.4228 28.2846H0V33.065H28.4228C34.8689 33.065 40.1053 27.813 40.1053 21.3659C40.1053 14.9187 34.8607 9.66667 28.4228 9.66667Z" fill="black"/>
<path d="M170.317 9.6665H132.583V14.447H132.867C136.675 14.447 139.776 17.5527 139.776 21.3657C139.776 25.1787 136.675 28.2844 132.867 28.2844H123.117C124.546 26.3413 125.398 23.951 125.398 21.3657C125.398 14.9104 120.153 9.6665 113.715 9.6665H83.1819L87.3223 2.34942L83.1656 -0.00830078L74.9903 14.4389H113.715C117.523 14.4389 120.624 17.5445 120.624 21.3576C120.624 25.1706 117.523 28.2762 113.715 28.2762H83.9937L69.1775 28.2112C70.5658 25.8535 71.8241 23.2763 71.9216 19.6258V19.5608C71.9216 15.8779 70.3872 12.325 67.7081 9.80471C64.9884 7.25186 61.4406 5.96731 57.7061 6.20308C51.0002 6.61772 45.6258 11.9998 45.2118 18.7153C44.9763 22.4551 46.2591 26.008 48.8083 28.7315C51.325 31.4145 54.8728 32.951 58.5423 32.951H60.3608L56.4964 38.7397L60.4583 41.3982L66.0844 32.9836L83.9694 33.0649H170.309C176.755 33.0649 181.992 27.8128 181.992 21.3657C181.992 14.9185 176.747 9.6665 170.309 9.6665H170.317ZM64.3551 26.9754L63.5514 28.2031L58.5585 28.1787C56.1636 28.1787 53.9391 27.2112 52.2911 25.4632C50.6512 23.7153 49.8312 21.4226 49.9773 19.0161C50.2371 14.7722 53.7686 11.2437 57.9984 10.9754C58.1851 10.9673 58.3718 10.9592 58.5504 10.9592C60.7505 10.9592 62.8207 11.7803 64.4282 13.2925C66.1656 14.9267 67.1317 17.1462 67.1398 19.5364C67.0505 22.5527 65.8489 24.5039 64.3389 26.9754H64.3551ZM170.317 28.2925H142.268C143.697 26.3494 144.549 23.9592 144.549 21.3738C144.549 18.7884 143.697 16.3901 142.268 14.4551H170.317C174.125 14.4551 177.226 17.5608 177.226 21.3738C177.226 25.1868 174.125 28.2925 170.317 28.2925Z" fill="black"/>
</g>
<defs>
<clipPath id="clip0_138_729">
<rect width="182" height="54" fill="white"/>
</clipPath>
</defs>
</svg>
