<svg width="40" height="41" viewBox="0 0 40 41" fill="none" xmlns="http://www.w3.org/2000/svg">
<g clip-path="url(#clip0_138_482)">
<path d="M36.9912 10.8574L36.99 10.8263C36.9726 10.4421 36.961 10.0356 36.954 9.5833C36.9213 7.3778 35.1681 5.55347 32.9623 5.43018C28.3633 5.17352 24.8056 3.67389 21.7657 0.710951L21.7398 0.686232C20.7483 -0.222885 19.2526 -0.222885 18.2608 0.686232L18.2349 0.710951C15.195 3.67389 11.6373 5.17352 7.0383 5.43048C4.83281 5.55347 3.07927 7.3778 3.04662 9.58361C3.0399 10.0328 3.028 10.4393 3.01061 10.8263L3.00877 10.8986C2.91936 15.5882 2.80827 21.4247 4.76078 26.7222C5.83439 29.6354 7.46036 32.1678 9.59323 34.2494C12.0224 36.62 15.2042 38.502 19.05 39.8429C19.1751 39.8866 19.3051 39.922 19.4376 39.9485C19.6243 39.9857 19.8123 40.0044 20.0003 40.0044C20.1883 40.0044 20.3766 39.9857 20.563 39.9485C20.6955 39.922 20.8264 39.8863 20.9521 39.8423C24.7934 38.4989 27.9718 36.616 30.3988 34.2457C32.5308 32.1635 34.1568 29.6305 35.2313 26.7167C37.1911 21.4033 37.0803 15.5559 36.9912 10.8574ZM33.0291 25.9047C30.9698 31.4881 26.766 35.3227 20.1776 37.6267C20.1541 37.6347 20.1291 37.6417 20.1031 37.6469C20.0351 37.6603 19.9658 37.6603 19.8968 37.6466C19.8712 37.6414 19.8462 37.6347 19.823 37.6267C13.2276 35.3269 9.02103 31.4946 6.96323 25.9108C5.16361 21.0277 5.26554 15.67 5.35557 10.9435L5.35618 10.9172C5.37449 10.511 5.3867 10.0856 5.39341 9.61809C5.40806 8.63879 6.18809 7.82855 7.16922 7.77392C9.77176 7.62866 12.0581 7.12573 14.1589 6.23645C16.257 5.34839 18.1204 4.09656 19.855 2.40955C19.9432 2.33509 20.0577 2.33479 20.1456 2.40955C21.8805 4.09656 23.7439 5.34839 25.8417 6.23645C27.9425 7.12573 30.2289 7.62866 32.8317 7.77392C33.8128 7.82855 34.5929 8.63879 34.6072 9.6184C34.6142 10.0884 34.6264 10.5138 34.6447 10.9172C34.7345 15.6493 34.8339 21.0112 33.0291 25.9047Z" fill="#7E94CB"/>
<path opacity="0.4" d="M19.9997 10.0364C14.5029 10.0364 10.0312 14.5084 10.0312 20.0049C10.0312 25.5018 14.5029 29.9738 19.9997 29.9738C25.4962 29.9738 29.9683 25.5018 29.9683 20.0049C29.9683 14.5084 25.4962 10.0364 19.9997 10.0364ZM19.9997 27.6264C15.7971 27.6264 12.3783 24.2075 12.3783 20.0049C12.3783 15.8024 15.7971 12.3835 19.9997 12.3835C24.202 12.3835 27.6209 15.8024 27.6209 20.0049C27.6209 24.2075 24.202 27.6264 19.9997 27.6264Z" fill="#7E94CB"/>
<path opacity="0.4" d="M22.8647 16.9102L18.2346 21.5403L16.9779 20.2836C16.5195 19.8252 15.7764 19.8252 15.318 20.2836C14.8599 20.742 14.8599 21.4851 15.318 21.9431L17.4048 24.0299C17.634 24.2591 17.9343 24.3736 18.2346 24.3736C18.5349 24.3736 18.8352 24.2591 19.0643 24.0299L24.5246 18.5697C24.9826 18.1113 24.9826 17.3682 24.5246 16.9102C24.0662 16.4515 23.3231 16.4515 22.8647 16.9102Z" fill="#7E94CB"/>
</g>
<defs>
<clipPath id="clip0_138_482">
<rect width="40" height="40" fill="white" transform="translate(0 0.00439453)"/>
</clipPath>
</defs>
</svg>
