<svg width="40" height="41" viewBox="0 0 40 41" fill="none" xmlns="http://www.w3.org/2000/svg">
<g clip-path="url(#clip0_138_519)">
<path opacity="0.4" d="M10.0891 20.0267H29.911C30.5581 20.0267 31.0828 19.502 31.0828 18.8549V5.89525C31.0828 5.24808 30.5581 4.72341 29.911 4.72341H24.8505V1.17635C24.8505 0.529186 24.3258 0.0045166 23.6786 0.0045166H16.3215C15.6744 0.0045166 15.1497 0.529186 15.1497 1.17635V4.72341H10.0892C9.44201 4.72341 8.91734 5.24808 8.91734 5.89525V18.8549C8.91727 19.5021 9.44186 20.0267 10.0891 20.0267ZM11.2609 17.6831V11.6222L12.6735 13.1964C12.8958 13.4441 13.2129 13.5856 13.5457 13.5856H18.8329C18.88 14.1896 19.3839 14.6653 20.0001 14.6653C20.6162 14.6653 21.1202 14.1896 21.1672 13.5856H26.4413C26.7733 13.5856 27.0898 13.4447 27.3119 13.198L28.7391 11.6136V17.6831H11.2609ZM17.4933 2.34818H22.5067V4.72341H17.4933V2.34818ZM11.2609 7.06708H28.7391V8.11189L25.9196 11.2419H21.1672C21.1201 10.638 20.6162 10.1622 20.0001 10.1622C19.384 10.1622 18.88 10.638 18.8329 11.2419H14.0686L11.261 8.11314V7.06708H11.2609Z" fill="#1E293E"/>
<path d="M38.843 19.1272C37.3043 17.5893 34.8006 17.5892 33.2617 19.1272L26.1098 26.2749C25.4202 25.1141 24.1533 24.3345 22.7076 24.3345H11.0529C8.50868 24.3345 6.11642 25.3237 4.31602 27.12L0.355998 30.9669C-0.108204 31.4178 -0.118985 32.1597 0.331936 32.624C0.782936 33.0882 1.52479 33.0989 1.98899 32.648L5.95502 28.7953C5.959 28.7914 5.96299 28.7875 5.96689 28.7837C7.32544 27.426 9.13163 26.6782 11.053 26.6782H22.7076C23.5954 26.6782 24.3177 27.3998 24.3177 28.2867C24.3177 28.3403 24.315 28.395 24.3096 28.4496C24.3095 28.45 24.3095 28.4504 24.3095 28.4508C24.2266 29.2743 23.5383 29.8951 22.7077 29.8951H14.0404C13.3932 29.8951 12.8685 30.4198 12.8685 31.067C12.8685 31.7141 13.3932 32.2388 14.0404 32.2388H22.7076C24.5956 32.2388 26.1837 30.9294 26.5709 29.1277L34.9185 20.785C35.5437 20.1601 36.5611 20.1601 37.1863 20.785C37.4889 21.0874 37.6556 21.4896 37.6556 21.9172C37.6556 22.3449 37.4889 22.747 37.1863 23.0495L25.6489 34.5799C24.6936 35.5347 23.4233 36.0659 22.0721 36.0756L7.79652 36.1784C7.48879 36.1806 7.19427 36.3038 6.97655 36.5214L5.4934 38.0037C5.03568 38.4612 5.03544 39.2031 5.49293 39.6609C5.72182 39.8899 6.02174 40.0043 6.3218 40.0043C6.62156 40.0043 6.92139 39.8899 7.15021 39.6614L8.29369 38.5185L22.0891 38.4191C24.0597 38.4049 25.9124 37.6301 27.3058 36.2375L38.8431 24.707C39.5887 23.9618 39.9994 22.9709 39.9994 21.9171C39.9993 20.8631 39.5887 19.8723 38.843 19.1272Z" fill="#1E293E"/>
</g>
<defs>
<clipPath id="clip0_138_519">
<rect width="40" height="40" fill="white" transform="translate(0 0.0045166)"/>
</clipPath>
</defs>
</svg>
