<svg width="40" height="41" viewBox="0 0 40 41" fill="none" xmlns="http://www.w3.org/2000/svg">
<g clip-path="url(#clip0_138_491)">
<path d="M36.6805 24.77C37.2383 24.1474 37.5781 23.3255 37.5781 22.4263C37.5781 20.488 36.0008 18.9106 34.0625 18.9106H27.2391C27.9148 16.8599 28.2031 14.1388 28.2031 12.9724V11.8013C28.2031 9.21689 26.1 7.11377 23.5156 7.11377H22.3438C21.8062 7.11377 21.3375 7.47939 21.207 8.00127L20.5688 10.5552C19.6742 14.1317 16.8344 18.0778 13.8953 18.795C13.3805 17.4919 12.1094 16.5669 10.625 16.5669H3.59375C2.94688 16.5669 2.42188 17.0919 2.42188 17.7388V38.8325C2.42188 39.4794 2.94688 40.0044 3.59375 40.0044H10.625C12.0227 40.0044 13.232 39.1849 13.7984 38.0005L17.825 39.3427C19.1414 39.7817 20.5133 40.0044 21.9016 40.0044H31.7188C33.657 40.0044 35.2344 38.4271 35.2344 36.4888C35.2344 36.0317 35.1469 35.5942 34.9875 35.1935C36.4781 34.7864 37.5781 33.42 37.5781 31.8013C37.5781 30.9021 37.2383 30.0802 36.6805 29.4575C37.2383 28.8349 37.5781 28.013 37.5781 27.1138C37.5781 26.2146 37.2383 25.3927 36.6805 24.77ZM11.7969 36.4888C11.7969 37.1349 11.2711 37.6606 10.625 37.6606H4.76562V18.9106H10.625C11.2711 18.9106 11.7969 19.4364 11.7969 20.0825V36.4888ZM31.7188 25.9419H34.0625C34.7086 25.9419 35.2344 26.4677 35.2344 27.1138C35.2344 27.7599 34.7086 28.2856 34.0625 28.2856H31.7188C31.0719 28.2856 30.5469 28.8106 30.5469 29.4575C30.5469 30.1044 31.0719 30.6294 31.7188 30.6294H34.0625C34.7086 30.6294 35.2344 31.1552 35.2344 31.8013C35.2344 32.4474 34.7086 32.9731 34.0625 32.9731H31.7188C31.0719 32.9731 30.5469 33.4981 30.5469 34.145C30.5469 34.7919 31.0719 35.3169 31.7188 35.3169C32.3648 35.3169 32.8906 35.8427 32.8906 36.4888C32.8906 37.1349 32.3648 37.6606 31.7188 37.6606H21.9016C20.7656 37.6606 19.643 37.4786 18.5656 37.1192L14.1406 35.6442V21.1435C15.9789 20.7942 17.7781 19.6302 19.4023 17.7247C20.9883 15.8638 22.2742 13.3966 22.8422 11.1239L23.2586 9.45752H23.5156C24.8078 9.45752 25.8594 10.5091 25.8594 11.8013V12.9724C25.8594 14.5458 25.3672 17.5638 24.7375 18.9106H22.3438C21.6969 18.9106 21.1719 19.4356 21.1719 20.0825C21.1719 20.7294 21.6969 21.2544 22.3438 21.2544H34.0625C34.7086 21.2544 35.2344 21.7802 35.2344 22.4263C35.2344 23.0724 34.7086 23.5981 34.0625 23.5981H31.7188C31.0719 23.5981 30.5469 24.1231 30.5469 24.77C30.5469 25.4169 31.0719 25.9419 31.7188 25.9419Z" fill="#1E293E"/>
<path opacity="0.4" d="M8.28125 35.3169C8.92846 35.3169 9.45312 34.7922 9.45312 34.145C9.45312 33.4978 8.92846 32.9731 8.28125 32.9731C7.63404 32.9731 7.10938 33.4978 7.10938 34.145C7.10938 34.7922 7.63404 35.3169 8.28125 35.3169Z" fill="#1E293E"/>
<path opacity="0.4" d="M24.6875 0.00439453C24.0403 0.00439453 23.5156 0.529082 23.5156 1.17627V3.59814C23.5156 4.24533 24.0403 4.77002 24.6875 4.77002C25.3347 4.77002 25.8594 4.24533 25.8594 3.59814V1.17627C25.8594 0.529082 25.3347 0.00439453 24.6875 0.00439453Z" fill="#1E293E"/>
<path opacity="0.4" d="M19.7156 5.17214L18.0584 3.51487C17.6008 3.05722 16.8588 3.05722 16.4011 3.51487C15.9434 3.97253 15.9434 4.71448 16.4011 5.17214L18.0584 6.8294C18.5159 7.28698 19.258 7.28706 19.7156 6.8294C20.1733 6.37175 20.1733 5.6298 19.7156 5.17214Z" fill="#1E293E"/>
<path opacity="0.4" d="M32.9739 3.51487C32.5163 3.05722 31.7743 3.05722 31.3166 3.51487L29.6594 5.17206C29.2017 5.62972 29.2017 6.37167 29.6594 6.82933C30.117 7.28698 30.859 7.28706 31.3166 6.8294L32.9739 5.17214C33.4316 4.71448 33.4316 3.97253 32.9739 3.51487Z" fill="#1E293E"/>
</g>
<defs>
<clipPath id="clip0_138_491">
<rect width="40" height="40" fill="white" transform="translate(0 0.00439453)"/>
</clipPath>
</defs>
</svg>
