<svg width="40" height="41" viewBox="0 0 40 41" fill="none" xmlns="http://www.w3.org/2000/svg">
<g clip-path="url(#clip0_138_537)">
<path d="M34.9962 19.4472V7.45291C34.9962 6.80572 34.4716 6.28104 33.8244 6.28104H24.9546V1.17627C24.9546 0.529082 24.4299 0.00439453 23.7827 0.00439453H11.2306C10.5834 0.00439453 10.0587 0.529082 10.0587 1.17627V6.28104H1.18898C0.541793 6.28104 0.0171051 6.80572 0.0171051 7.45291V31.3013C0.0171051 31.9485 0.541793 32.4731 1.18898 32.4731H18.2118C19.7388 36.8529 23.9098 40.0044 28.8036 40.0044C39.9172 39.9563 44.1341 25.4949 34.9962 19.4472ZM12.4025 2.34814H22.6109V6.28104H12.4025V2.34814ZM32.567 8.62416C32.3209 10.2945 31.5491 11.8358 30.3334 13.0516L27.0629 16.3221H26.2098V15.6111C26.1521 14.0579 23.9231 14.0591 23.866 15.6111V16.3221H11.1473V15.6111C11.0896 14.0579 8.86062 14.0591 8.80351 15.6111V16.3221H7.95039L4.67984 13.0516C3.46414 11.8358 2.69242 10.2945 2.44625 8.62416H32.567ZM32.6525 13.982V18.2579C31.5449 17.8519 30.356 17.6162 29.1177 17.582L31.9907 14.7089C32.224 14.4756 32.4448 14.2329 32.6525 13.982ZM17.6702 30.1294H2.36086V13.982C2.56859 14.2329 2.78937 14.4756 3.02265 14.7089L6.6364 18.3227C6.85617 18.5424 7.15421 18.666 7.465 18.666H8.80351V19.3769C8.86117 20.9301 11.0902 20.9289 11.1473 19.3769V18.666H23.866V18.7263C19.7555 20.6992 17.0554 25.3579 17.6702 30.1294ZM28.8036 37.6606C23.9127 37.6606 19.9337 33.6817 19.9337 28.7909C20.3797 17.04 37.2292 17.0432 37.6734 28.791C37.6734 33.6817 33.6944 37.6606 28.8036 37.6606Z" fill="#1E293E"/>
<path opacity="0.4" d="M31.1199 28.3669C30.5049 28.0083 29.7845 27.8281 29.0877 27.654C28.5503 27.5196 27.9945 27.3806 27.668 27.1902C27.4649 27.0717 27.4649 27.0205 27.4649 26.908C27.5307 25.4453 29.1439 25.3177 29.8849 25.8807C30.35 26.3309 31.0919 26.3187 31.542 25.8537C31.9921 25.3886 31.98 24.6467 31.5149 24.1966C31.2161 23.8978 30.68 23.5664 29.9753 23.3784V23.1425C29.9177 21.5893 27.6887 21.5905 27.6316 23.1425V23.4181C25.3583 24.1117 23.8817 27.6337 26.487 29.2148C27.102 29.5735 27.8224 29.7537 28.5192 29.9278C29.0566 30.0622 29.6124 30.2012 29.9389 30.3916C30.142 30.5101 30.142 30.5613 30.142 30.6737C30.0762 32.1365 28.463 32.2641 27.722 31.7011C26.5659 30.6623 25.0165 32.2648 26.0919 33.3851C26.3908 33.684 26.9269 34.0154 27.6316 34.2034V34.4393C27.6892 35.9925 29.9182 35.9913 29.9753 34.4393V34.1637C32.2487 33.47 33.7252 29.948 31.1199 28.3669Z" fill="#1E293E"/>
</g>
<defs>
<clipPath id="clip0_138_537">
<rect width="40" height="40" fill="white" transform="translate(0 0.00439453)"/>
</clipPath>
</defs>
</svg>
