<svg width="40" height="41" viewBox="0 0 40 41" fill="none" xmlns="http://www.w3.org/2000/svg">
<g clip-path="url(#clip0_138_511)">
<path opacity="0.4" d="M21.1378 20.0046C21.7859 20.0046 22.313 20.5303 22.313 21.1765C22.313 22.374 20.7072 22.8013 20.1129 21.7507C19.7941 21.1871 19.0777 20.9883 18.513 21.3064C17.9482 21.6246 17.7489 22.3395 18.0678 22.9031C18.4924 23.6535 19.1727 24.21 19.9636 24.4897V24.6921C19.9636 25.3393 20.4894 25.864 21.1379 25.864C21.7864 25.864 22.3122 25.3393 22.3122 24.6921V24.4907C23.6795 24.007 24.6618 22.7043 24.6618 21.1765C24.6618 19.238 23.0809 17.6609 21.1379 17.6609C20.4898 17.6609 19.9627 17.1352 19.9627 16.489C19.9627 15.8428 20.4898 15.3171 21.1379 15.3171C21.5615 15.3171 21.9543 15.5462 22.1629 15.9149C22.4819 16.4784 23.1983 16.6775 23.7629 16.359C24.3277 16.0408 24.5269 15.326 24.208 14.7624C23.7833 14.0119 23.103 13.4555 22.3122 13.1758V12.9734C22.3122 12.3262 21.7864 11.8015 21.1379 11.8015C20.4894 11.8015 19.9636 12.3262 19.9636 12.9734V13.1749C18.5962 13.6585 17.614 14.9612 17.614 16.489C17.6139 18.4275 19.1948 20.0046 21.1378 20.0046Z" fill="#7E94CB"/>
<path d="M38.7473 23.1908C37.416 21.9956 35.4774 21.9078 34.06 22.8901V19.4762C34.06 14.1083 31.1475 9.22659 26.5238 6.64628C28.3464 4.06167 28.1709 1.25198 28.1822 1.17519C28.1815 0.528545 27.6559 0.00463867 27.0078 0.00463867H15.2679C14.6198 0.00463867 14.0943 0.528467 14.0936 1.17519C14.1117 1.29519 13.887 3.96534 15.7602 6.64167C11.1316 9.22081 8.21578 14.1051 8.21578 19.4762V24.1965C6.4168 24.9454 4.94937 26.27 3.97047 28.2078H1.17437C0.525781 28.2078 0 28.7325 0 29.3796V38.8328C0 39.4799 0.525781 40.0046 1.1743 40.0046H27.0117C27.3225 40.0046 27.6206 39.8817 27.8407 39.6628L38.8878 28.6763C40.4244 27.1482 40.3606 24.6391 38.7473 23.1908ZM25.7673 2.34839C25.585 3.65104 25.0309 4.86472 24.157 5.86401H18.1266C17.2633 4.8744 16.7006 3.64339 16.5121 2.34839H25.7673ZM10.5644 19.4762C10.5644 14.6012 13.423 10.2046 17.8653 8.20776H24.4103C28.8527 10.2046 31.7113 14.6012 31.7113 19.4762V25.1907L27.8324 29.1535C27.2509 27.9744 26.0163 27.1531 24.6129 27.1531H18.2487C16.5368 24.657 13.6149 23.2932 10.5643 23.6027V19.4762H10.5644ZM37.2298 27.0161L26.5265 37.6609H2.34867V30.5515H4.69344C5.70102 30.5515 5.8768 29.5032 6.12094 29.1573C8.18648 25.0692 13.8995 24.7826 16.3863 28.59C16.5264 28.7428 16.7794 29.4967 17.6149 29.4967H24.613C25.2704 29.4967 25.8195 30.0071 25.837 30.6345C25.8553 31.295 25.3251 31.8405 24.6622 31.8405H16.4387C15.7902 31.8405 15.2645 32.3652 15.2645 33.0124C15.2645 33.6596 15.7902 34.1842 16.4387 34.1842H24.6622C25.5204 34.1842 26.3285 33.8817 26.9687 33.3266C27.2373 33.173 26.8036 33.536 35.1837 24.9973C35.7251 24.4441 36.6005 24.4159 37.1766 24.9331C37.788 25.4821 37.8169 26.4323 37.2298 27.0161Z" fill="#7E94CB"/>
</g>
<defs>
<clipPath id="clip0_138_511">
<rect width="40" height="40" fill="white" transform="translate(0 0.00463867)"/>
</clipPath>
</defs>
</svg>
