<svg width="40" height="41" viewBox="0 0 40 41" fill="none" xmlns="http://www.w3.org/2000/svg">
<g clip-path="url(#clip0_138_444)">
<path d="M38.8277 37.6608H37.5777V17.7394C37.5777 17.2349 37.255 16.7872 36.7764 16.6277L23.5155 12.2074V8.20838C23.5155 7.71986 23.2126 7.2826 22.7552 7.11111L4.00562 0.0800173C3.24031 -0.206936 2.42226 0.359705 2.42226 1.17728V37.6609H1.17226C0.525077 37.6609 0.000389099 38.1856 0.000389099 38.8328C0.000389099 39.4799 0.525077 40.0046 1.17226 40.0046C1.43547 40.0046 38.3199 40.0046 38.8277 40.0046C39.4749 40.0046 39.9996 39.4799 39.9996 38.8328C39.9996 38.1856 39.4749 37.6608 38.8277 37.6608ZM11.797 37.6608H9.45336V32.9734H11.797V37.6608ZM16.4845 37.6608H14.1408V32.9734H16.4845V37.6608ZM21.1719 13.052V37.6608H18.8282V31.8016C18.8282 31.1544 18.3035 30.6297 17.6563 30.6297H8.28148C7.6343 30.6297 7.10961 31.1544 7.10961 31.8016V37.6608H4.76594V2.86822L21.1719 9.02041V13.052ZM30.5466 37.6608H28.203V32.9734H30.5466V37.6608ZM35.2341 37.6608H32.8904V31.8016C32.8904 31.1544 32.3657 30.6297 31.7185 30.6297H27.0311C26.3839 30.6297 25.8592 31.1544 25.8592 31.8016V37.6608H23.5155V14.6778L35.2341 18.584V37.6608Z" fill="#1E293E"/>
<path opacity="0.4" d="M10.6252 25.9423H8.28156C7.63438 25.9423 7.10969 26.4669 7.10969 27.1141C7.10969 27.7613 7.6343 28.286 8.28156 28.286H10.6252C11.2724 28.286 11.7971 27.7613 11.7971 27.1141C11.7971 26.4669 11.2724 25.9423 10.6252 25.9423Z" fill="#1E293E"/>
<path opacity="0.4" d="M17.6563 25.9423H15.3127C14.6655 25.9423 14.1408 26.4669 14.1408 27.1141C14.1408 27.7613 14.6654 28.286 15.3127 28.286H17.6563C18.3035 28.286 18.8282 27.7613 18.8282 27.1141C18.8282 26.4669 18.3035 25.9423 17.6563 25.9423Z" fill="#1E293E"/>
<path opacity="0.4" d="M10.6252 21.2549H8.28156C7.63438 21.2549 7.10969 21.7796 7.10969 22.4268C7.10969 23.0739 7.6343 23.5986 8.28156 23.5986H10.6252C11.2724 23.5986 11.7971 23.0739 11.7971 22.4268C11.7971 21.7796 11.2724 21.2549 10.6252 21.2549Z" fill="#1E293E"/>
<path opacity="0.4" d="M17.6563 21.2549H15.3127C14.6655 21.2549 14.1408 21.7796 14.1408 22.4268C14.1408 23.0739 14.6654 23.5986 15.3127 23.5986H17.6563C18.3035 23.5986 18.8282 23.0739 18.8282 22.4268C18.8282 21.7796 18.3035 21.2549 17.6563 21.2549Z" fill="#1E293E"/>
<path d="M31.7185 25.9423H27.0311C26.3839 25.9423 25.8592 26.4669 25.8592 27.1141C25.8592 27.7613 26.3838 28.286 27.0311 28.286H31.7185C32.3657 28.286 32.8904 27.7613 32.8904 27.1141C32.8904 26.4669 32.3657 25.9423 31.7185 25.9423Z" fill="#1E293E"/>
<path d="M31.7185 21.2549H27.0311C26.3839 21.2549 25.8592 21.7796 25.8592 22.4268C25.8592 23.0739 26.3838 23.5986 27.0311 23.5986H31.7185C32.3657 23.5986 32.8904 23.0739 32.8904 22.4268C32.8904 21.7796 32.3657 21.2549 31.7185 21.2549Z" fill="#1E293E"/>
<path opacity="0.4" d="M10.6252 16.5675H8.28156C7.63438 16.5675 7.10969 17.0922 7.10969 17.7394C7.10969 18.3866 7.6343 18.9113 8.28156 18.9113H10.6252C11.2724 18.9113 11.7971 18.3866 11.7971 17.7394C11.797 17.0922 11.2724 16.5675 10.6252 16.5675Z" fill="#1E293E"/>
<path opacity="0.4" d="M17.6563 16.5675H15.3127C14.6655 16.5675 14.1408 17.0922 14.1408 17.7394C14.1408 18.3866 14.6654 18.9113 15.3127 18.9113H17.6563C18.3035 18.9113 18.8282 18.3866 18.8282 17.7394C18.8282 17.0922 18.3035 16.5675 17.6563 16.5675Z" fill="#1E293E"/>
<path opacity="0.4" d="M10.6252 11.88H8.28156C7.63438 11.88 7.10969 12.4047 7.10969 13.0519C7.10969 13.6991 7.6343 14.2238 8.28156 14.2238H10.6252C11.2724 14.2238 11.7971 13.6991 11.7971 13.0519C11.797 12.4047 11.2724 11.88 10.6252 11.88Z" fill="#1E293E"/>
<path opacity="0.4" d="M17.6563 11.88H15.3127C14.6655 11.88 14.1408 12.4047 14.1408 13.0519C14.1408 13.6991 14.6654 14.2238 15.3127 14.2238H17.6563C18.3035 14.2238 18.8282 13.6991 18.8282 13.0519C18.8282 12.4047 18.3035 11.88 17.6563 11.88Z" fill="#1E293E"/>
</g>
<defs>
<clipPath id="clip0_138_444">
<rect width="40" height="40" fill="white" transform="translate(0 0.0045166)"/>
</clipPath>
</defs>
</svg>
