<svg width="40" height="41" viewBox="0 0 40 41" fill="none" xmlns="http://www.w3.org/2000/svg">
<g clip-path="url(#clip0_138_527)">
<path d="M35.7031 6.25439H34.5312V3.52002C34.5312 1.5815 32.9541 0.00439453 31.0156 0.00439453C29.0771 0.00439453 27.5 1.5815 27.5 3.52002V4.47978C27.5 5.69416 26.6845 6.77533 25.5168 7.10893L24.375 7.43518V7.42627C24.375 6.77908 23.8503 6.25439 23.2031 6.25439H18.5156C17.8684 6.25439 17.3438 6.77908 17.3438 7.42627V12.6606H3.51562C1.57711 12.6606 0 14.2378 0 16.1763V38.8325C0 39.2647 0.237891 39.6618 0.618906 39.8657C0.792188 39.9585 0.982187 40.0044 1.1718 40.0044C1.39914 40.0044 1.62586 39.9383 1.82187 39.8075L6.21422 36.8794H28.5156C30.4541 36.8794 32.0312 35.3023 32.0312 33.3638V21.0981H35.7031C38.0724 21.0981 40 19.1706 40 16.8013V10.5513C40 8.18197 38.0724 6.25439 35.7031 6.25439ZM19.6875 8.59814H22.0312V18.7544H19.6875V8.59814ZM29.6875 33.3638C29.6875 34.0099 29.1618 34.5356 28.5156 34.5356H5.85938C5.62805 34.5356 5.40188 34.6042 5.20937 34.7325L2.34375 36.6429V16.1763C2.34375 15.5301 2.86945 15.0044 3.51562 15.0044H17.3438V19.9263C17.3438 20.5735 17.8684 21.0981 18.5156 21.0981H23.2031C23.8052 21.0981 24.3006 20.6439 24.3669 20.0596C25.4109 20.7254 26.6384 21.0981 27.9149 21.0981H29.6875V33.3638ZM37.6562 16.8013C37.6562 17.8782 36.7801 18.7544 35.7031 18.7544H27.9149C26.4901 18.7544 25.1594 18.0356 24.375 16.8602V9.87275L26.1606 9.3626C28.3292 8.74299 29.8438 6.7351 29.8438 4.47978V3.52002C29.8438 2.87385 30.3695 2.34814 31.0156 2.34814C31.6618 2.34814 32.1875 2.87385 32.1875 3.52002V7.42627C32.1875 8.07346 32.7122 8.59814 33.3594 8.59814H35.7031C36.7801 8.59814 37.6562 9.47432 37.6562 10.5513V16.8013Z" fill="#7E94CB"/>
<path opacity="0.4" d="M5.85938 22.0356H13.6719C14.3191 22.0356 14.8438 21.511 14.8438 20.8638C14.8438 20.2166 14.3191 19.6919 13.6719 19.6919H5.85938C5.21219 19.6919 4.6875 20.2166 4.6875 20.8638C4.6875 21.511 5.21219 22.0356 5.85938 22.0356Z" fill="#7E94CB"/>
<path opacity="0.4" d="M26.1719 24.3794H5.85938C5.21219 24.3794 4.6875 24.9041 4.6875 25.5513C4.6875 26.1985 5.21219 26.7231 5.85938 26.7231H26.1719C26.8191 26.7231 27.3438 26.1985 27.3438 25.5513C27.3438 24.9041 26.8191 24.3794 26.1719 24.3794Z" fill="#7E94CB"/>
<path opacity="0.4" d="M26.1719 29.0669H5.85938C5.21219 29.0669 4.6875 29.5916 4.6875 30.2388C4.6875 30.886 5.21219 31.4106 5.85938 31.4106H26.1719C26.8191 31.4106 27.3438 30.886 27.3438 30.2388C27.3438 29.5916 26.8191 29.0669 26.1719 29.0669Z" fill="#7E94CB"/>
</g>
<defs>
<clipPath id="clip0_138_527">
<rect width="40" height="40" fill="white" transform="translate(0 0.00439453)"/>
</clipPath>
</defs>
</svg>
