<svg width="40" height="41" viewBox="0 0 40 41" fill="none" xmlns="http://www.w3.org/2000/svg">
<g clip-path="url(#clip0_138_421)">
<path d="M38.9681 12.5927C37.5974 11.2219 35.367 11.222 33.9958 12.593C33.5741 13.0151 30.8815 15.7099 30.4702 16.1216V6.83479C30.4702 5.89573 30.1045 5.01292 29.4404 4.34894L26.126 1.03433C25.462 0.370264 24.5791 0.00463867 23.64 0.00463867H3.51707C1.57855 0.00463867 0.00144196 1.58175 0.00144196 3.52026V36.489C0.00144196 38.4275 1.57855 40.0046 3.51707 40.0046H26.9546C28.8931 40.0046 30.4702 38.4275 30.4702 36.489V26.0696L38.968 17.5646C40.342 16.1907 40.3423 13.9667 38.9681 12.5927ZM23.439 2.34839C23.6604 2.34839 24.0871 2.31003 24.4687 2.69159L27.7832 6.0062C28.1551 6.37815 28.1265 6.78573 28.1265 7.03589H23.439V2.34839ZM28.1264 36.489C28.1264 37.1352 27.6008 37.6609 26.9546 37.6609H3.51707C2.8709 37.6609 2.34519 37.1352 2.34519 36.489V3.52026C2.34519 2.87409 2.8709 2.34839 3.51707 2.34839H21.0952V8.20776C21.0952 8.85495 21.6199 9.37964 22.2671 9.37964H28.1264V18.4674C28.1264 18.4674 24.6691 21.9277 24.6689 21.9278L23.0125 23.5843C22.8839 23.7129 22.7868 23.8698 22.7293 24.0424L21.072 29.0142C20.9316 29.4353 21.0412 29.8996 21.3551 30.2135C21.6694 30.5278 22.1339 30.6368 22.5543 30.4966L27.5262 28.8393C27.6988 28.7818 27.8557 28.6849 27.9843 28.5562L28.1264 28.414V36.489ZM25.4983 24.413L27.1556 26.0703L26.5225 26.7033L24.0367 27.5319L24.8653 25.046L25.4983 24.413ZM28.8125 24.4126L27.1553 22.7553C28.0378 21.8721 31.9572 17.9493 32.7885 17.1174L34.4457 18.7746L28.8125 24.4126ZM37.3104 15.9076L36.1024 17.1167L34.4451 15.4594L35.6535 14.25C36.1107 13.793 36.854 13.7931 37.3109 14.25C37.7677 14.707 37.7701 15.4478 37.3104 15.9076Z" fill="#7E94CB"/>
<path opacity="0.4" d="M22.267 11.7234H5.86078C5.21359 11.7234 4.6889 12.2481 4.6889 12.8953C4.6889 13.5425 5.21359 14.0671 5.86078 14.0671H22.267C22.9142 14.0671 23.4389 13.5425 23.4389 12.8953C23.4389 12.2481 22.9142 11.7234 22.267 11.7234Z" fill="#7E94CB"/>
<path opacity="0.4" d="M17.5795 16.4109H5.86078C5.21359 16.4109 4.6889 16.9356 4.6889 17.5828C4.6889 18.23 5.21359 18.7546 5.86078 18.7546H17.5795C18.2267 18.7546 18.7514 18.23 18.7514 17.5828C18.7514 16.9356 18.2267 16.4109 17.5795 16.4109Z" fill="#7E94CB"/>
<path opacity="0.4" d="M17.5795 21.0984H5.86078C5.21359 21.0984 4.6889 21.6231 4.6889 22.2703C4.6889 22.9175 5.21359 23.4421 5.86078 23.4421H17.5795C18.2267 23.4421 18.7514 22.9175 18.7514 22.2703C18.7514 21.6231 18.2267 21.0984 17.5795 21.0984Z" fill="#7E94CB"/>
<path opacity="0.4" d="M17.5795 25.7859H5.86078C5.21359 25.7859 4.6889 26.3106 4.6889 26.9578C4.6889 27.605 5.21359 28.1296 5.86078 28.1296H17.5795C18.2267 28.1296 18.7514 27.605 18.7514 26.9578C18.7514 26.3106 18.2267 25.7859 17.5795 25.7859Z" fill="#7E94CB"/>
<path opacity="0.4" d="M22.267 32.9734H15.2358C14.5886 32.9734 14.0639 33.4981 14.0639 34.1453C14.0639 34.7925 14.5886 35.3171 15.2358 35.3171H22.267C22.9142 35.3171 23.4389 34.7925 23.4389 34.1453C23.4389 33.4981 22.9142 32.9734 22.267 32.9734Z" fill="#7E94CB"/>
</g>
<defs>
<clipPath id="clip0_138_421">
<rect width="40" height="40" fill="white" transform="translate(0 0.00463867)"/>
</clipPath>
</defs>
</svg>
