<svg width="70" height="70" viewBox="0 0 70 70" fill="none" xmlns="http://www.w3.org/2000/svg">
<path opacity="0.15" d="M0 27.944C0 4.93212 4.93212 0 27.944 0H42.056C65.0679 0 70 4.93212 70 27.944V42.056C70 65.0679 65.0679 70 42.056 70H27.944C4.93212 70 0 65.0679 0 42.056V27.944Z" fill="#7E94CB"/>
<path d="M34.6633 37.6068C34.7731 37.6398 34.8866 37.6562 35 37.6562C35.1134 37.6562 35.2269 37.6398 35.3367 37.6068C37.8551 36.8513 40.0159 35.337 41.5853 33.2276C43.1548 31.1181 43.9844 28.6134 43.9844 25.9841V19.2969C43.9844 18.6497 43.4597 18.125 42.8125 18.125C41.3316 18.125 40.0003 17.3022 39.3381 15.9778L39.1732 15.6479C38.9747 15.2508 38.5689 15 38.125 15H31.875C31.4311 15 31.0253 15.2508 30.8268 15.6478L30.6619 15.9777C29.9997 17.3022 28.6684 18.125 27.1875 18.125C26.5403 18.125 26.0156 18.6497 26.0156 19.2969V25.9841C26.0156 28.6134 26.8452 31.1181 28.4147 33.2276C29.9841 35.337 32.1449 36.8513 34.6633 37.6068ZM28.3594 20.3596C30.1329 20.0248 31.6748 18.9377 32.5879 17.3438H37.4121C38.3252 18.9377 39.8671 20.0248 41.6406 20.3596V25.9842C41.6406 30.223 38.9866 33.9049 35 35.2545C31.0134 33.9049 28.3594 30.223 28.3594 25.9842V20.3596Z" fill="#7E94CB"/>
<path opacity="0.4" d="M33.8952 29.7097C34.1951 29.7097 34.495 29.5953 34.7238 29.3664L39.1431 24.947C39.6008 24.4894 39.6008 23.7474 39.1431 23.2898C38.6856 22.8321 37.9435 22.8321 37.4859 23.2898L33.8951 26.8805L32.514 25.4995C32.0564 25.0418 31.3144 25.0418 30.8567 25.4995C30.3991 25.9571 30.3991 26.6991 30.8567 27.1567L33.0664 29.3664C33.2953 29.5953 33.5952 29.7097 33.8952 29.7097Z" fill="#7E94CB"/>
<path d="M50.4033 42.5554C51.3124 41.6373 51.875 40.3755 51.875 38.9844C51.875 36.1843 49.597 33.9062 46.7969 33.9062C43.9968 33.9062 41.7188 36.1843 41.7188 38.9844C41.7188 40.373 42.2795 41.6328 43.1859 42.5505C41.3134 43.4663 39.8415 45.0745 39.107 47.0532C38.8373 46.8402 38.551 46.6477 38.25 46.4779C38.9014 45.7245 39.2969 44.7437 39.2969 43.6719C39.2969 41.3026 37.3693 39.375 35 39.375C32.6307 39.375 30.7031 41.3026 30.7031 43.6719C30.7031 44.7437 31.0986 45.7245 31.75 46.4779C31.449 46.6476 31.1627 46.8402 30.893 47.0532C30.1585 45.0745 28.6866 43.4663 26.8141 42.5505C27.7205 41.6328 28.2812 40.373 28.2812 38.9844C28.2812 36.1843 26.0032 33.9062 23.2031 33.9062C20.403 33.9062 18.125 36.1843 18.125 38.9844C18.125 40.3755 18.6876 41.6373 19.5967 42.5554C16.8767 43.8924 15 46.692 15 49.9219V53.8281C15 54.4753 15.5247 55 16.1719 55H53.8281C54.4753 55 55 54.4753 55 53.8281V49.9219C55 46.692 53.1233 43.8924 50.4033 42.5554ZM44.0625 38.9844C44.0625 37.4766 45.2891 36.25 46.7969 36.25C48.3046 36.25 49.5312 37.4766 49.5312 38.9844C49.5312 40.4921 48.3046 41.7188 46.7969 41.7188C45.2891 41.7188 44.0625 40.4921 44.0625 38.9844ZM33.0469 43.6719C33.0469 42.5949 33.923 41.7188 35 41.7188C36.077 41.7188 36.9531 42.5949 36.9531 43.6719C36.9531 44.7488 36.077 45.625 35 45.625C33.923 45.625 33.0469 44.7488 33.0469 43.6719ZM20.4688 38.9844C20.4688 37.4766 21.6954 36.25 23.2031 36.25C24.7109 36.25 25.9375 37.4766 25.9375 38.9844C25.9375 40.4921 24.7109 41.7188 23.2031 41.7188C21.6954 41.7188 20.4688 40.4921 20.4688 38.9844ZM17.3438 49.9219C17.3438 46.691 19.9723 44.0625 23.2031 44.0625C26.242 44.0625 28.748 46.3622 29.0347 49.3513C28.6028 50.2317 28.3594 51.2206 28.3594 52.2656V52.6562H17.3438V49.9219ZM39.2969 52.6562H30.7031V52.2656C30.7031 49.8963 32.6307 47.9688 35 47.9688C37.3693 47.9688 39.2969 49.8963 39.2969 52.2656V52.6562ZM52.6562 52.6562H41.6406V52.2656C41.6406 51.2206 41.3972 50.2317 40.9653 49.3513C41.252 46.3622 43.758 44.0625 46.7969 44.0625C50.0277 44.0625 52.6562 46.691 52.6562 49.9219V52.6562Z" fill="#7E94CB"/>
</svg>
