<svg width="70" height="70" viewBox="0 0 70 70" fill="none" xmlns="http://www.w3.org/2000/svg">
<path opacity="0.1" d="M0 27.944C0 4.93212 4.93212 0 27.944 0H42.056C65.0679 0 70 4.93212 70 27.944V42.056C70 65.0679 65.0679 70 42.056 70H27.944C4.93212 70 0 65.0679 0 42.056V27.944Z" fill="#1E293E"/>
<path d="M18.193 49.7018C18.3864 50.0563 18.7486 50.2862 19.1516 50.3104L23.798 50.5893L26.3628 54.4738C26.5802 54.803 26.948 55 27.3406 55C27.3545 55 27.3685 54.9998 27.3825 54.9992C27.7908 54.9847 28.162 54.7585 28.3622 54.4025L32.9203 46.2963L34.1713 47.5474C34.4002 47.7762 34.7001 47.8906 35 47.8906C35.2999 47.8906 35.5998 47.7762 35.8286 47.5473L37.0796 46.2963L41.6377 54.4024C41.8397 54.7616 42.2155 54.9884 42.6275 54.9995C42.6381 54.9998 42.6487 54.9999 42.6593 54.9999C43.0593 54.9999 43.4327 54.7955 43.6481 54.4568L46.2017 50.4404L50.8108 50.312C51.2211 50.3005 51.5955 50.0753 51.7978 49.7181C52.0001 49.361 52.0009 48.9241 51.7997 48.5662L47.2965 40.5548L48.4965 40.2334C48.7967 40.153 49.0527 39.9566 49.208 39.6873C49.3634 39.4181 49.4055 39.0983 49.3252 38.7981L48.497 35.7074C48.389 35.3043 48.5052 34.8705 48.8003 34.5754L51.0628 32.3129C51.5205 31.8552 51.5205 31.1133 51.0628 30.6556L48.8003 28.3931C48.5052 28.098 48.389 27.6642 48.497 27.2612L49.3251 24.1704C49.4055 23.8702 49.3634 23.5503 49.208 23.2812C49.0525 23.012 48.7966 22.8156 48.4964 22.7352L45.4057 21.907C45.0026 21.799 44.685 21.4815 44.577 21.0784L43.7489 17.9877C43.6685 17.6874 43.4721 17.4315 43.2029 17.2761C42.9338 17.1207 42.6141 17.0786 42.3137 17.159L39.223 17.9871C38.8223 18.0945 38.3917 17.9804 38.0967 17.6895L35.8426 15.3574C35.6218 15.129 35.3177 15 35 15C34.6823 15 34.3782 15.129 34.1574 15.3574L31.903 17.6897C31.608 17.9806 31.1773 18.0945 30.7769 17.9873L27.6861 17.1592C27.3858 17.0788 27.0659 17.1209 26.7969 17.2763C26.5277 17.4317 26.3313 17.6877 26.2509 17.9879L25.4227 21.0786C25.3147 21.4817 24.9972 21.7993 24.5941 21.9073L21.5034 22.7354C21.2031 22.8158 20.9472 23.0122 20.7918 23.2814C20.6364 23.5506 20.5943 23.8705 20.6747 24.1706L21.5028 27.2613C21.6109 27.6645 21.4946 28.0982 21.1995 28.3934L18.937 30.6559C18.4794 31.1135 18.4794 31.8555 18.937 32.3131L21.1995 34.5756C21.4946 34.8707 21.6109 35.3045 21.5029 35.7076L20.6748 38.7984C20.5943 39.0986 20.6364 39.4184 20.7919 39.6876C20.9473 39.9567 21.2033 40.1531 21.5034 40.2336L22.7034 40.5551L18.2002 48.5664C18.0023 48.9184 17.9997 49.3473 18.193 49.7018ZM45.5143 48.1149C45.1252 48.1258 44.7669 48.3291 44.558 48.6576L42.7209 51.5469L39.009 44.9455C39.2099 44.9605 39.0527 44.9434 42.3139 45.8096C42.6141 45.89 42.934 45.8479 43.2031 45.6925C43.4723 45.5371 43.6687 45.2811 43.7491 44.9809L44.5773 41.8902C44.6457 41.6348 44.7985 41.4139 45.0037 41.2588L48.8059 48.0231L45.5143 48.1149ZM21.4229 31.4844L22.8568 30.0505C23.7421 29.1652 24.0907 27.8641 23.7667 26.6547L23.2419 24.6959L25.2006 24.171C26.41 23.847 27.3626 22.8945 27.6866 21.685L28.2115 19.7262L30.1703 20.2511C31.3798 20.575 32.6809 20.2264 33.5661 19.3411C33.5708 19.3365 35 17.858 35 17.858C35 17.858 36.4292 19.3366 36.4339 19.3412C37.3192 20.2265 38.6203 20.5752 39.8297 20.2511L41.7885 19.7262L42.3134 21.685C42.6373 22.8944 43.5899 23.847 44.7994 24.171L46.7581 24.6959L46.2333 26.6547C45.9094 27.864 46.258 29.1652 47.1433 30.0505L48.5771 31.4844L47.1432 32.9183C46.2579 33.8035 45.9093 35.1047 46.2333 36.3141L46.7581 38.2729L44.7994 38.7977C43.59 39.1217 42.6374 40.0743 42.3134 41.2838L41.7885 43.2425L39.8297 42.7177C38.7068 42.417 37.5053 42.6967 36.6305 43.4468C36.5284 43.5251 36.6059 43.4584 35 45.0615C33.4051 43.4697 33.4715 43.5245 33.367 43.4449C32.4831 42.6884 31.282 42.4198 30.1703 42.7177L28.2115 43.2425L27.6866 41.2838C27.3627 40.0744 26.4101 39.1218 25.2006 38.7977L23.2419 38.2729L23.7667 36.3141C24.0906 35.1048 23.742 33.8035 22.8567 32.9183L21.4229 31.4844ZM24.9964 41.2588C25.2016 41.414 25.3543 41.6348 25.4228 41.8903L26.2509 44.981C26.3313 45.2812 26.5277 45.5372 26.797 45.6926C27.0662 45.848 27.3859 45.8902 27.6862 45.8097C30.9688 44.9378 30.7909 44.9607 30.9911 44.9455L27.2606 51.5798L25.4312 48.809C25.228 48.5012 24.8916 48.307 24.5234 48.2849L21.1606 48.0831L24.9964 41.2588Z" fill="#1E293E"/>
<path opacity="0.4" d="M32.9995 35.8286C33.2283 36.0575 33.5282 36.1719 33.8281 36.1719C34.1281 36.1719 34.428 36.0575 34.6567 35.8286L39.3442 31.1411C39.8019 30.6835 39.8019 29.9415 39.3442 29.4839C38.8866 29.0262 38.1446 29.0262 37.687 29.4839L33.8281 33.3428L32.313 31.8277C31.8554 31.37 31.1134 31.37 30.6557 31.8277C30.1981 32.2854 30.1981 33.0273 30.6557 33.485L32.9995 35.8286Z" fill="#1E293E"/>
<path opacity="0.4" d="M35 40.8594C40.1694 40.8594 44.375 36.6537 44.375 31.4844C44.375 26.315 40.1694 22.1094 35 22.1094C29.8306 22.1094 25.625 26.315 25.625 31.4844C25.625 36.6537 29.8306 40.8594 35 40.8594ZM35 24.4531C38.877 24.4531 42.0312 27.6073 42.0312 31.4844C42.0312 35.3614 38.877 38.5156 35 38.5156C31.123 38.5156 27.9688 35.3614 27.9688 31.4844C27.9688 27.6073 31.123 24.4531 35 24.4531Z" fill="#1E293E"/>
</svg>
