<svg width="70" height="70" viewBox="0 0 70 70" fill="none" xmlns="http://www.w3.org/2000/svg">
<path opacity="0.1" d="M0 27.944C0 4.93212 4.93212 0 27.944 0H42.056C65.0679 0 70 4.93212 70 27.944V42.056C70 65.0679 65.0679 70 42.056 70H27.944C4.93212 70 0 65.0679 0 42.056V27.944Z" fill="#1E293E"/>
<g clip-path="url(#clip0_138_573)">
<path d="M38.9014 43.5517C40.2847 42.4149 41.1685 40.6916 41.1685 38.7656C41.1685 35.351 38.3905 32.573 34.9759 32.573C31.5613 32.573 28.7833 35.351 28.7833 38.7656C28.7833 40.6916 29.6671 42.4146 31.0501 43.5514C28.2181 44.9885 26.2729 47.9294 26.2729 51.3166V53.8282C26.2729 54.4755 26.7975 55.0001 27.4448 55.0001H42.507C43.1543 55.0001 43.6789 54.4755 43.6789 53.8282V51.3166C43.6789 47.9294 41.734 44.9888 38.9014 43.5517ZM34.9759 34.9167C37.0984 34.9167 38.8248 36.6434 38.8248 38.7656C38.8248 40.8881 37.0984 42.6148 34.9759 42.6148C32.8537 42.6148 31.127 40.8881 31.127 38.7656C31.127 36.6434 32.8537 34.9167 34.9759 34.9167ZM41.3351 52.6563H28.6166V51.3166C28.6166 47.8107 31.4688 44.9586 34.9771 44.9586C38.483 44.9586 41.3354 47.8107 41.3354 51.3166V52.6563H41.3351Z" fill="#1E293E"/>
<path opacity="0.4" d="M25.958 28.3563L28.0283 25.939C28.5974 25.2749 28.2626 24.2404 27.4106 24.0368L24.3146 23.2977L22.6556 20.5816C22.2165 19.8626 21.1292 19.8068 20.6555 20.5816L18.9963 23.2977L15.9003 24.0368C15.0491 24.2401 14.7125 25.274 15.2823 25.939L17.3526 28.3563L17.0984 31.5286C17.0297 32.3883 17.8946 33.0459 18.7164 32.7041L21.6556 31.4822L24.5941 32.7041C25.4022 33.0398 26.282 32.4017 26.2122 31.5286L25.958 28.3563ZM23.8611 27.2015C23.6581 27.4386 23.558 27.7465 23.5831 28.0575L23.7228 29.8037L22.1057 29.1311C21.8176 29.0115 21.4938 29.0115 21.2058 29.1311L19.588 29.8037L19.7278 28.0575C19.7528 27.7465 19.6527 27.4386 19.4498 27.2015L18.3102 25.8712L20.0143 25.4644C20.3177 25.3918 20.5795 25.2017 20.7422 24.9356L21.6556 23.4405L22.5687 24.9353C22.731 25.2014 22.9932 25.3918 23.2965 25.4644L25.0006 25.8712L23.8611 27.2015Z" fill="#1E293E"/>
<path opacity="0.4" d="M52.6474 28.3563L54.7177 25.939C55.2869 25.2749 54.9521 24.2404 54.1 24.0368L51.004 23.2977L49.3451 20.5816C48.9059 19.8626 47.8186 19.8068 47.345 20.5816L45.6857 23.2977L42.5897 24.0368C41.7386 24.2401 41.402 25.274 41.9717 25.939L44.0421 28.3563L43.7878 31.5286C43.7192 32.3883 44.5841 33.0459 45.4059 32.7041L48.345 31.4822L51.2836 32.7041C52.0917 33.0398 52.9715 32.4017 52.9016 31.5286L52.6474 28.3563ZM50.5505 27.2015C50.3476 27.4386 50.2475 27.7465 50.2725 28.0575L50.4123 29.8037L48.7952 29.1311C48.5071 29.0115 48.1833 29.0115 47.8952 29.1311L46.2775 29.8037L46.4172 28.0575C46.4423 27.7465 46.3422 27.4386 46.1392 27.2015L44.9997 25.8712L46.7038 25.4644C47.0071 25.3918 47.269 25.2017 47.4316 24.9356L48.345 23.4405L49.2581 24.9353C49.4205 25.2014 49.6826 25.3918 49.986 25.4644L51.6901 25.8712L50.5505 27.2015Z" fill="#1E293E"/>
<path opacity="0.4" d="M39.3027 23.335L41.373 20.9177C41.9422 20.2536 41.6074 19.2191 40.7553 19.0155L37.6593 18.2764L36.0004 15.5607C35.5612 14.8414 34.4739 14.7855 34.0003 15.5603L32.3407 18.2764L29.2447 19.0155C28.3939 19.2188 28.0573 20.2527 28.627 20.9177L30.6973 23.335L30.4431 26.5073C30.3742 27.3673 31.2393 28.0246 32.0612 27.6832L35.0003 26.4609L37.9389 27.6832C38.747 28.0185 39.6268 27.3804 39.5569 26.5073L39.3027 23.335ZM37.2058 22.1802C37.0029 22.417 36.9028 22.7253 36.9275 23.0362L37.0676 24.7825L35.4505 24.1098C35.1624 23.9902 34.8386 23.9902 34.5505 24.1098L32.9328 24.7825L33.0725 23.0362C33.0976 22.7253 32.9975 22.417 32.7945 22.1802L31.6547 20.85L33.3591 20.4432C33.6621 20.3705 33.9243 20.1804 34.0866 19.9143L35.0003 18.4192L35.9134 19.914C36.0758 20.1801 36.3379 20.3705 36.6413 20.4432L38.3454 20.85L37.2058 22.1802Z" fill="#1E293E"/>
</g>
<defs>
<clipPath id="clip0_138_573">
<rect width="40" height="40" fill="white" transform="translate(15 15)"/>
</clipPath>
</defs>
</svg>
