<svg width="70" height="70" viewBox="0 0 70 70" fill="none" xmlns="http://www.w3.org/2000/svg">
<path opacity="0.15" d="M0 27.944C0 4.93212 4.93212 0 27.944 0H42.056C65.0679 0 70 4.93212 70 27.944V42.056C70 65.0679 65.0679 70 42.056 70H27.944C4.93212 70 0 65.0679 0 42.056V27.944Z" fill="#7E94CB"/>
<g clip-path="url(#clip0_138_606)">
<path d="M48.2397 26.8507C47.7145 26.3487 47.1715 25.8296 46.9996 25.413C46.8108 24.9555 46.8263 24.1744 46.8414 23.4191C46.8681 22.0777 46.8984 20.5576 45.8652 19.5195C44.8302 18.4795 43.3077 18.503 41.9655 18.5246C41.2117 18.5364 40.4317 18.5488 39.976 18.3589C39.5595 18.1853 39.0417 17.6417 38.5411 17.1161C37.5963 16.1242 36.5256 15 35 15C33.4745 15 32.4038 16.1242 31.459 17.116C30.9584 17.6417 30.4406 18.1853 30.0242 18.3588C29.5685 18.5487 28.7885 18.5364 28.0347 18.5245C26.6913 18.5039 25.1699 18.4794 24.1349 19.5193C23.1017 20.5574 23.132 22.0777 23.1587 23.419C23.1737 24.1744 23.1893 24.9555 23.0006 25.4129C22.8286 25.8295 22.2856 26.3487 21.7604 26.8506C20.7714 27.7961 19.6505 28.8676 19.6505 30.3912C19.6505 31.9148 20.7714 32.9863 21.7604 33.9316C22.2856 34.4337 22.8286 34.9527 23.0005 35.3693C23.1893 35.8269 23.1738 36.608 23.1587 37.3634C23.132 38.7046 23.1017 40.2248 24.1349 41.263C24.7862 41.9174 25.6305 42.1505 26.5015 42.2282V53.8281C26.5015 54.2215 26.6988 54.5885 27.027 54.8055C27.3549 55.0226 27.7702 55.0605 28.132 54.9066L35 51.9855L41.8681 54.9066C42.0152 54.9691 42.1712 55 42.3266 55C42.5531 55 42.7785 54.9343 42.9731 54.8055C43.3011 54.5886 43.4985 54.2215 43.4985 53.8281V42.2285C44.3695 42.1509 45.2138 41.9177 45.8651 41.2633C46.8984 40.2252 46.8681 38.7048 46.8413 37.3636C46.8263 36.6082 46.8107 35.8271 46.9995 35.3697C47.1714 34.953 47.7145 34.4339 48.2396 33.932C49.2286 32.9865 50.3495 31.915 50.3495 30.3914C50.3495 28.8678 49.2287 27.7962 48.2397 26.8507ZM35.4586 49.6338C35.1656 49.5091 34.8344 49.5091 34.5414 49.6338L28.8452 52.0563V42.2548C29.3096 42.2639 29.7331 42.3025 30.0242 42.4237C30.4406 42.5973 30.9584 43.1409 31.459 43.6665C32.4038 44.6584 33.4745 45.7826 35 45.7826C36.5256 45.7826 37.5963 44.6584 38.541 43.6666C39.0417 43.1409 39.5594 42.5973 39.9759 42.4237C40.267 42.3024 40.6904 42.2638 41.1548 42.2546V52.0563L35.4586 49.6338ZM46.6201 32.2377C45.9189 32.908 45.1939 33.601 44.833 34.4756C44.4577 35.3851 44.4782 36.4146 44.4981 37.4103C44.5155 38.2852 44.5352 39.277 44.2038 39.6099C43.8713 39.944 42.8784 39.9286 42.0022 39.9146C41.0083 39.8991 39.9805 39.8829 39.0744 40.2603C38.2024 40.6236 37.5117 41.3488 36.8437 42.0502C36.2237 42.7011 35.521 43.4388 34.9999 43.4388C34.4787 43.4388 33.776 42.701 33.156 42.0501C32.488 41.3487 31.7973 40.6236 30.9253 40.2602C30.201 39.9585 29.3991 39.9083 28.5988 39.9083C28.3979 39.9083 28.197 39.9115 27.9976 39.9146C27.1213 39.9283 26.1285 39.9441 25.7959 39.6099C25.4646 39.277 25.4844 38.2853 25.5017 37.4103C25.5216 36.4146 25.5421 35.385 25.1667 34.4755C24.8059 33.601 24.0809 32.908 23.3797 32.2377C22.7302 31.6168 21.994 30.913 21.994 30.3913C21.994 29.8696 22.7302 29.1658 23.3797 28.5449C24.0809 27.8747 24.8059 27.1816 25.1668 26.307C25.5421 25.3976 25.5216 24.368 25.5017 23.3723C25.4843 22.4973 25.4645 21.5055 25.796 21.1727C26.1285 20.8386 27.1219 20.8541 27.9975 20.868C28.992 20.8835 30.0194 20.8998 30.9255 20.5223C31.7974 20.1591 32.4881 19.4338 33.156 18.7325C33.7761 18.0815 34.4788 17.3438 35 17.3438C35.5212 17.3438 36.2239 18.0815 36.8439 18.7324C37.5119 19.4338 38.2026 20.159 39.0745 20.5222C39.9806 20.8998 41.0082 20.8833 42.0024 20.868C42.8786 20.8543 43.8715 20.8387 44.2041 21.1727C44.5353 21.5055 44.5156 22.4973 44.4982 23.3723C44.4784 24.3679 44.4578 25.3975 44.8332 26.307C45.1941 27.1815 45.9191 27.8745 46.6202 28.5448C47.2698 29.1657 48.006 29.8695 48.006 30.3912C48.006 30.913 47.2697 31.6168 46.6201 32.2377Z" fill="#7E94CB"/>
<path opacity="0.4" d="M35 21.8604C30.3604 21.8604 26.5859 25.6454 26.5859 30.2978C26.5859 34.9502 30.3604 38.7353 35 38.7353C39.6396 38.7353 43.4142 34.9503 43.4142 30.2979C43.4142 25.6454 39.6396 21.8604 35 21.8604ZM35 36.3915C31.6528 36.3915 28.9296 33.6579 28.9296 30.2979C28.9296 26.9378 31.6528 24.2042 35 24.2042C38.3473 24.2042 41.0704 26.9378 41.0704 30.2979C41.0704 33.6579 38.3473 36.3915 35 36.3915Z" fill="#7E94CB"/>
<path opacity="0.4" d="M36.3743 28.0864L34.2503 30.2105L33.6257 29.5859C33.1681 29.1284 32.4261 29.1284 31.9685 29.5859C31.5108 30.0435 31.5108 30.7855 31.9685 31.2432L33.4217 32.6964C33.6414 32.9162 33.9395 33.0397 34.2503 33.0397C34.561 33.0397 34.8592 32.9162 35.0788 32.6964L38.0315 29.7437C38.4892 29.286 38.4892 28.5441 38.0315 28.0864C37.5739 27.6288 36.8319 27.6288 36.3743 28.0864Z" fill="#7E94CB"/>
</g>
<defs>
<clipPath id="clip0_138_606">
<rect width="40" height="40" fill="white" transform="translate(15 15)"/>
</clipPath>
</defs>
</svg>
