<svg width="30" height="30" viewBox="0 0 30 30" fill="none" xmlns="http://www.w3.org/2000/svg">
<path opacity="0.4" d="M15 27.5C21.9036 27.5 27.5 21.9036 27.5 15C27.5 8.09644 21.9036 2.5 15 2.5C8.09644 2.5 2.5 8.09644 2.5 15C2.5 21.9036 8.09644 27.5 15 27.5Z" fill="#7E94CB"/>
<path d="M15 18.7625C14.7625 18.7625 14.525 18.675 14.3375 18.4875L9.92501 14.075C9.56251 13.7125 9.56251 13.1125 9.92501 12.75C10.2875 12.3875 10.8875 12.3875 11.25 12.75L15 16.5L18.75 12.75C19.1125 12.3875 19.7125 12.3875 20.075 12.75C20.4375 13.1125 20.4375 13.7125 20.075 14.075L15.6625 18.4875C15.475 18.675 15.2375 18.7625 15 18.7625Z" fill="#7E94CB"/>
</svg>
