<svg width="12" height="21" viewBox="0 0 12 21" fill="none" xmlns="http://www.w3.org/2000/svg">
<path d="M7.35027 20.9609H4.14118C3.60516 20.9609 3.16913 20.5258 3.16913 19.9908V12.7667H1.29688C0.760861 12.7667 0.324829 12.3313 0.324829 11.7965V8.70096C0.324829 8.16599 0.760861 7.7308 1.29688 7.7308H3.16913V6.18066C3.16913 4.64365 3.65271 3.33597 4.56743 2.39923C5.48628 1.45822 6.77037 0.960938 8.28089 0.960938L10.7283 0.964905C11.2634 0.96582 11.6987 1.401 11.6987 1.93506V4.8092C11.6987 5.34418 11.2628 5.77936 10.7269 5.77936L9.07911 5.77997C8.57657 5.77997 8.44861 5.88052 8.42124 5.91135C8.37614 5.96246 8.32247 6.10696 8.32247 6.50598V7.73065H10.6031C10.7748 7.73065 10.9411 7.77292 11.0841 7.85257C11.3924 8.02454 11.5842 8.3497 11.5842 8.70111L11.5829 11.7967C11.5829 12.3313 11.1469 12.7665 10.6109 12.7665H8.32247V19.9908C8.32247 20.5258 7.88629 20.9609 7.35027 20.9609ZM4.34391 19.7885H7.14754V12.2418C7.14754 11.8846 7.43879 11.594 7.79655 11.594H10.4082L10.4092 8.90329H7.79639C7.43864 8.90329 7.14754 8.61276 7.14754 8.25555V6.50598C7.14754 6.04791 7.19417 5.52698 7.54061 5.13544C7.95922 4.66211 8.61892 4.60748 9.0788 4.60748L10.5239 4.60687V2.13709L8.27997 2.13342C5.85244 2.13342 4.34391 3.68433 4.34391 6.18066V8.25555C4.34391 8.61261 4.05281 8.90329 3.69506 8.90329H1.49961V11.594H3.69506C4.05281 11.594 4.34391 11.8846 4.34391 12.2418V19.7885Z" fill="black"/>
</svg>
