<svg width="20" height="20" viewBox="0 0 20 20" fill="none" xmlns="http://www.w3.org/2000/svg">
<path d="M14.5862 0H5.41381C2.42858 0 0 2.42858 0 5.41381V14.5863C0 17.5714 2.42858 20 5.41381 20H14.5863C17.5714 20 20 17.5714 20 14.5863V5.41381C20 2.42858 17.5714 0 14.5862 0ZM18.8275 14.5863C18.8275 16.9249 16.9249 18.8275 14.5862 18.8275H5.41381C3.0751 18.8275 1.17248 16.9249 1.17248 14.5863V5.41381C1.17248 3.0751 3.0751 1.17248 5.41381 1.17248H14.5863C16.9249 1.17248 18.8275 3.0751 18.8275 5.41381V14.5863Z" fill="black"/>
<path d="M9.99998 4.53139C6.98454 4.53139 4.53139 6.98454 4.53139 9.99998C4.53139 13.0154 6.98454 15.4686 9.99998 15.4686C13.0154 15.4686 15.4686 13.0154 15.4686 9.99998C15.4686 6.98454 13.0154 4.53139 9.99998 4.53139ZM9.99998 14.2961C7.63121 14.2961 5.70388 12.3689 5.70388 9.99998C5.70388 7.63121 7.63121 5.70388 9.99998 5.70388C12.3689 5.70388 14.2961 7.63121 14.2961 9.99998C14.2961 12.3689 12.3689 14.2961 9.99998 14.2961Z" fill="black"/>
<path d="M15.5993 2.58926C14.7082 2.58926 13.9834 3.3142 13.9834 4.20516C13.9834 5.09627 14.7082 5.82122 15.5993 5.82122C16.4904 5.82122 17.2154 5.09627 17.2154 4.20516C17.2154 3.31405 16.4904 2.58926 15.5993 2.58926ZM15.5993 4.64858C15.3549 4.64858 15.1559 4.44961 15.1559 4.20516C15.1559 3.96056 15.3549 3.76174 15.5993 3.76174C15.8439 3.76174 16.0429 3.96056 16.0429 4.20516C16.0429 4.44961 15.8439 4.64858 15.5993 4.64858Z" fill="black"/>
</svg>
