<svg width="24" height="24" viewBox="0 0 24 24" fill="none" xmlns="http://www.w3.org/2000/svg">
<path d="M20 6.92198V16.8109C20 20.7664 19 21.7553 15 21.7553H9C5 21.7553 4 20.7664 4 16.8109V6.92198C4 2.96643 5 1.97754 9 1.97754H15C19 1.97754 20 2.96643 20 6.92198Z" stroke="#7E94CB" stroke-width="1.5" stroke-linecap="round" stroke-linejoin="round"/>
<path opacity="0.4" d="M14 5.43848H10" stroke="#7E94CB" stroke-width="1.5" stroke-linecap="round" stroke-linejoin="round"/>
<path opacity="0.4" d="M12 18.8873C12.856 18.8873 13.55 18.2011 13.55 17.3546C13.55 16.508 12.856 15.8218 12 15.8218C11.144 15.8218 10.45 16.508 10.45 17.3546C10.45 18.2011 11.144 18.8873 12 18.8873Z" stroke="#7E94CB" stroke-width="1.5" stroke-linecap="round" stroke-linejoin="round"/>
</svg>
