<svg width="45" height="45" viewBox="0 0 45 45" fill="none" xmlns="http://www.w3.org/2000/svg">
<path d="M45 17.964C45 3.17065 41.8294 0 27.036 0H17.964C3.17064 0 0 3.17065 0 17.964V27.036C0 41.8294 3.17064 45 17.964 45H27.036C41.8294 45 45 41.8294 45 27.036V17.964Z" fill="#749E4B"/>
<path d="M28.0054 25.0403L26.9455 23.9803C26.6563 23.6912 26.2566 23.5462 25.8497 23.5828C25.4424 23.6194 25.0752 23.833 24.8421 24.1689L24.4729 24.701C23.9708 24.6115 22.9994 24.3584 22.3204 23.6793C21.6412 23 21.388 22.0282 21.2988 21.5269L21.8309 21.1576C22.1669 20.9245 22.3805 20.5572 22.417 20.1499C22.4535 19.7427 22.3086 19.3433 22.0195 19.0542L20.9595 17.9943C20.5336 17.5684 19.8916 17.4668 19.3619 17.7412C18.4332 18.2224 17.8231 19.1243 17.6439 20.2809C17.352 22.1652 18.2231 24.3883 19.9173 26.0825C21.3948 27.56 23.2746 28.4115 24.9811 28.4115C25.2313 28.4115 25.4779 28.3932 25.7188 28.3559C26.8754 28.1768 27.7774 27.5666 28.2585 26.6379C28.2585 26.6379 28.2585 26.6379 28.2586 26.6379C28.533 26.1081 28.4313 25.4661 28.0054 25.0403ZM27.1801 26.0791C26.7977 26.8172 26.0733 27.0719 25.5329 27.1556C24.0471 27.3857 22.18 26.6274 20.7761 25.2236C19.3723 23.8198 18.6139 21.9527 18.8441 20.4668C18.9278 19.9264 19.1825 19.2021 19.9206 18.8196C19.9406 18.8093 19.9627 18.8043 19.9851 18.8043C20.0264 18.8043 20.0687 18.8213 20.1006 18.8531L21.1605 19.9131C21.2046 19.9572 21.2102 20.0073 21.2071 20.0415C21.204 20.0758 21.1896 20.1241 21.1384 20.1596L20.3012 20.7406C20.1261 20.8621 20.0275 21.0665 20.0414 21.2792C20.0467 21.3595 20.1848 23.2614 21.4615 24.5381C22.7382 25.8148 24.6401 25.953 24.7204 25.9582C24.9329 25.9719 25.1376 25.8736 25.2591 25.6984L25.84 24.8612C25.8755 24.81 25.9238 24.7956 25.9581 24.7925C25.9924 24.7894 26.0425 24.7951 26.0866 24.8391L27.1465 25.899C27.1958 25.9482 27.2095 26.0223 27.1801 26.0791Z" fill="white"/>
<path d="M30.0709 15.9291C28.1821 14.0402 25.6708 13 22.9996 13C20.3283 13 17.8171 14.0402 15.9283 15.929C14.3229 17.5344 13.3038 19.659 13.0585 21.9116C12.8265 24.0411 13.2894 26.2086 14.3631 28.046L13.321 31.9352C13.2648 32.1447 13.3247 32.3684 13.4782 32.5218C13.6316 32.6752 13.8553 32.7351 14.0648 32.679L17.9539 31.6369C19.4814 32.5296 21.2372 33 23.0096 33C23.369 33 23.7292 32.9807 24.0883 32.9415C26.3409 32.6962 28.4656 31.6771 30.0709 30.0717C31.9598 28.1829 33 25.6716 33 23.0004C33 20.3292 31.9597 17.8179 30.0709 15.9291ZM29.2121 29.2128C26.3085 32.1164 21.8488 32.6323 18.3669 30.4677C18.2697 30.4073 18.1585 30.3761 18.0462 30.3761C17.9936 30.3761 17.9408 30.383 17.889 30.3968L14.7665 31.2335L15.6032 28.111C15.6466 27.9488 15.621 27.7758 15.5323 27.6332C13.3676 24.1511 13.8836 19.6914 16.7871 16.7879C20.2127 13.3623 25.7865 13.3623 29.2121 16.7879C32.6376 20.2134 32.6376 25.7873 29.2121 29.2128Z" fill="white"/>
</svg>
