<svg width="20" height="20" viewBox="0 0 20 20" fill="none" xmlns="http://www.w3.org/2000/svg">
<path d="M15.0054 12.0405L13.9455 10.9806C13.6563 10.6914 13.2566 10.5465 12.8497 10.5831C12.4424 10.6196 12.0752 10.8332 11.8421 11.1691L11.4729 11.7012C10.9708 11.6118 9.99941 11.3586 9.32043 10.6796C8.64117 10.0003 8.38805 9.02848 8.29875 8.52711L8.83094 8.15785C9.16687 7.92473 9.38051 7.55742 9.41695 7.15016C9.45348 6.74289 9.30855 6.34352 9.01945 6.05445L7.95953 4.99453C7.53359 4.56863 6.8916 4.46699 6.36191 4.74145C5.43316 5.22262 4.82309 6.12457 4.64387 7.28113C4.35195 9.16547 5.22309 11.3885 6.91726 13.0827C8.39484 14.5603 10.2746 15.4118 11.9811 15.4118C12.2313 15.4118 12.4779 15.3934 12.7188 15.3561C13.8754 15.177 14.7774 14.5668 15.2585 13.6381C15.5329 13.1084 15.4313 12.4664 15.0054 12.0405ZM14.1801 13.0794C13.7977 13.8174 13.0733 14.0721 12.5329 14.1558C11.0471 14.3859 9.17996 13.6277 7.77609 12.2238C6.3723 10.82 5.61394 8.95289 5.8441 7.46707C5.92777 6.92668 6.18254 6.2023 6.92059 5.81988C6.94059 5.80957 6.96269 5.80453 6.98512 5.80453C7.02637 5.80453 7.06871 5.82152 7.10058 5.85336L8.16055 6.91332C8.20457 6.95742 8.21019 7.0075 8.20711 7.04176C8.20402 7.07605 8.18965 7.12434 8.1384 7.15988L7.30117 7.74082C7.12609 7.8623 7.02746 8.06676 7.04141 8.27941C7.04668 8.35973 7.1848 10.2616 8.46152 11.5383C9.73824 12.8151 11.6401 12.9533 11.7204 12.9585C11.9329 12.9721 12.1376 12.8738 12.2591 12.6987L12.84 11.8614C12.8755 11.8103 12.9238 11.7959 12.9581 11.7928C12.9924 11.7896 13.0425 11.7953 13.0866 11.8394L14.1465 12.8993C14.1958 12.9485 14.2095 13.0225 14.1801 13.0794Z" fill="black"/>
<path d="M17.0709 2.92906C15.1821 1.0402 12.6708 0 9.99959 0C7.32834 0 4.81709 1.0402 2.92826 2.92902C1.32291 4.53438 0.303771 6.65902 0.0584589 8.9116C-0.173455 11.0411 0.289357 13.2086 1.36311 15.046L0.320998 18.9352C0.264826 19.1447 0.324748 19.3684 0.478225 19.5218C0.631623 19.6752 0.855334 19.7351 1.06479 19.679L4.95393 18.6369C6.48143 19.5296 8.23725 20 10.0096 20C10.369 20 10.7292 19.9807 11.0883 19.9415C13.3409 19.6962 15.4656 18.6771 17.0709 17.0717C18.9598 15.1829 20 12.6716 20 10.0004C20 7.32922 18.9597 4.81789 17.0709 2.92906ZM16.2121 16.2128C13.3085 19.1164 8.84877 19.6323 5.36686 17.4677C5.26967 17.4073 5.15846 17.3761 5.04615 17.3761C4.99358 17.3761 4.94076 17.383 4.88901 17.3968L1.76647 18.2335L2.60319 15.111C2.64662 14.9488 2.62096 14.7758 2.53233 14.6332C0.3676 11.1511 0.883615 6.69141 3.78709 3.78789C7.21272 0.362344 12.7865 0.362344 16.2121 3.78789C19.6376 7.21344 19.6376 12.7873 16.2121 16.2128Z" fill="black"/>
</svg>
