<svg width="180" height="180" viewBox="0 0 180 180" fill="none" xmlns="http://www.w3.org/2000/svg">
<path d="M0.5 71.856C0.5 57.0741 1.2927 45.2297 3.39433 35.7732C5.4947 26.3224 8.89576 19.2873 14.0915 14.0915C19.2873 8.89576 26.3224 5.4947 35.7732 3.39433C45.2297 1.2927 57.0741 0.5 71.856 0.5H108.144C122.926 0.5 134.77 1.2927 144.227 3.39433C153.678 5.4947 160.713 8.89576 165.908 14.0915C171.104 19.2873 174.505 26.3224 176.606 35.7732C178.707 45.2297 179.5 57.0741 179.5 71.856V108.144C179.5 122.926 178.707 134.77 176.606 144.227C174.505 153.678 171.104 160.713 165.908 165.908C160.713 171.104 153.678 174.505 144.227 176.606C134.77 178.707 122.926 179.5 108.144 179.5H71.856C57.0741 179.5 45.2297 178.707 35.7732 176.606C26.3224 174.505 19.2873 171.104 14.0915 165.908C8.89576 160.713 5.4947 153.678 3.39433 144.227C1.2927 134.77 0.5 122.926 0.5 108.144V71.856Z" stroke="#7E94CB" stroke-opacity="0.3"/>
<g clip-path="url(#clip0_138_400)">
<path d="M122.564 57.5147C104.649 57.5147 91.2554 50.3579 91.1245 50.2867C90.4236 49.9044 89.5764 49.9044 88.8756 50.2867C88.743 50.359 75.4164 57.5147 57.4364 57.5147C56.1395 57.5147 55.0881 58.5661 55.0881 59.863V97.4364C55.0881 107.538 61.1219 116.387 72.5373 123.028C80.8844 127.884 89.1153 129.856 89.4616 129.938C89.8087 130.019 90.1774 130.023 90.5385 129.938C90.8848 129.856 99.1156 127.884 107.463 123.028C118.878 116.387 124.912 107.538 124.912 97.4364V59.863C124.912 58.5661 123.861 57.5147 122.564 57.5147ZM120.215 97.4364C120.215 105.863 115.161 113.089 105.192 118.915C98.6081 122.763 91.912 124.716 90 125.227C88.0859 124.715 81.391 122.762 74.8085 118.915C64.8394 113.089 59.7847 105.863 59.7847 97.4364V62.1741C74.9406 61.6936 86.4501 56.705 90 54.9815C93.5499 56.705 105.059 61.6936 120.215 62.1741V97.4364Z" fill="#7E94CB"/>
<path d="M87.6517 64.8728V66.6684C85.4809 67.4015 83.7616 69.1208 83.0284 71.2916H78.728C78.105 71.2916 77.5078 71.539 77.0675 71.9793L73.998 75.0489H68.7084C67.4115 75.0489 66.3601 76.1004 66.3601 77.3973C66.3601 78.6942 67.4115 79.7456 68.7084 79.7456H68.9432L64.0448 91.502C63.923 91.7858 63.8552 92.0983 63.8552 92.4266V96.184C63.8552 100.241 67.156 103.542 71.2133 103.542H73.7182C77.7755 103.542 81.0763 100.241 81.0763 96.184V92.4266C81.0763 92.0982 81.0084 91.7858 80.8867 91.502L75.9064 79.5494C76.1739 79.4331 76.4208 79.2683 76.6311 79.0579L79.7007 75.9883H83.0284C83.7617 78.1591 85.4809 79.8784 87.6517 80.6115V107.613H82.4853C81.1884 107.613 80.137 108.664 80.137 109.961C80.137 111.258 81.1884 112.309 82.4853 112.309H97.5147C98.8116 112.309 99.863 111.258 99.863 109.961C99.863 108.664 98.8116 107.613 97.5147 107.613H92.3483V80.6115C94.5191 79.8784 96.2384 78.1591 96.9716 75.9883H100.299L103.369 79.0579C103.579 79.2683 103.826 79.433 104.093 79.5494L99.1131 91.502C98.9913 91.7858 98.9235 92.0983 98.9235 92.4266V96.184C98.9235 100.241 102.224 103.542 106.282 103.542H108.787C112.844 103.542 116.145 100.241 116.145 96.184V92.4266C116.145 92.0982 116.077 91.7858 115.955 91.502L111.057 79.7456H111.291C112.588 79.7456 113.64 78.6942 113.64 77.3973C113.64 76.1004 112.588 75.0489 111.291 75.0489H106.002L102.932 71.9793C102.492 71.539 101.895 71.2916 101.272 71.2916H96.9716C96.2383 69.1208 94.5191 67.4015 92.3483 66.6684V64.8728C92.3483 63.5759 91.2969 62.5245 90 62.5245C88.7031 62.5245 87.6517 63.5759 87.6517 64.8728ZM72.4657 83.5029L75.2055 90.0783H69.7259L72.4657 83.5029ZM76.3796 96.184C76.3796 97.6515 75.1857 98.8454 73.7182 98.8454H71.2133C69.7457 98.8454 68.5519 97.6515 68.5519 96.184V94.775H76.3796V96.184ZM111.448 96.184C111.448 97.6515 110.254 98.8454 108.787 98.8454H106.282C104.814 98.8454 103.62 97.6515 103.62 96.184V94.775H111.448V96.184ZM104.794 90.0783L107.534 83.5029L110.274 90.0783H104.794ZM90 76.3014C88.5324 76.3014 87.3385 75.1075 87.3385 73.6399C87.3385 72.1724 88.5324 70.9785 90 70.9785C91.4675 70.9785 92.6614 72.1724 92.6614 73.6399C92.6614 75.1075 91.4675 76.3014 90 76.3014Z" fill="#7E94CB"/>
</g>
<defs>
<clipPath id="clip0_138_400">
<rect width="80" height="80" fill="white" transform="translate(50 50)"/>
</clipPath>
</defs>
</svg>
