<svg width="180" height="180" viewBox="0 0 180 180" fill="none" xmlns="http://www.w3.org/2000/svg">
<path d="M0.5 71.856C0.5 57.0741 1.2927 45.2297 3.39433 35.7732C5.4947 26.3224 8.89576 19.2873 14.0915 14.0915C19.2873 8.89576 26.3224 5.4947 35.7732 3.39433C45.2297 1.2927 57.0741 0.5 71.856 0.5H108.144C122.926 0.5 134.77 1.2927 144.227 3.39433C153.678 5.4947 160.713 8.89576 165.908 14.0915C171.104 19.2873 174.505 26.3224 176.606 35.7732C178.707 45.2297 179.5 57.0741 179.5 71.856V108.144C179.5 122.926 178.707 134.77 176.606 144.227C174.505 153.678 171.104 160.713 165.908 165.908C160.713 171.104 153.678 174.505 144.227 176.606C134.77 178.707 122.926 179.5 108.144 179.5H71.856C57.0741 179.5 45.2297 178.707 35.7732 176.606C26.3224 174.505 19.2873 171.104 14.0915 165.908C8.89576 160.713 5.4947 153.678 3.39433 144.227C1.2927 134.77 0.5 122.926 0.5 108.144V71.856Z" stroke="#7E94CB" stroke-opacity="0.3"/>
<path d="M113.336 95.3078C113.334 95.3072 100.774 91.1208 100.774 91.1208C103.213 89.1903 107.406 84.7113 107.406 77.4478V59.875C107.406 54.4298 102.976 50 97.5313 50H82.4687C77.0164 50 72.5937 54.4116 72.5937 59.875V77.4478C72.5937 84.7114 76.7862 89.1902 79.2259 91.1208C79.2259 91.1208 66.6655 95.3075 66.6644 95.3078C58.1984 98.1303 52.5105 106.022 52.5105 114.946V127.656C52.5105 128.951 53.5598 130 54.8542 130H125.146C126.44 130 127.49 128.951 127.49 127.656V114.946C127.49 106.022 121.802 98.1305 113.336 95.3078ZM65.0625 125.312H57.198V114.946C57.198 109.193 60.2537 103.995 65.0625 101.158V125.312ZM97.5313 54.6875C100.392 54.6875 102.719 57.0147 102.719 59.875V65.0625H100.039C93.8277 65.0625 88.642 60.5856 87.5392 54.6875H97.5313ZM77.2812 59.875C77.2812 57.0111 79.5998 54.6875 82.4687 54.6875H82.6355V57.3645C82.6355 60.7923 80.3834 63.7039 77.2812 64.6977V59.875ZM77.2812 77.448V69.5277C81.1677 68.7802 84.4137 66.2103 86.092 62.7453C89.2684 66.9948 94.3378 69.75 100.039 69.75H102.719V77.448C102.719 84.4713 97.0364 90.1667 90 90.1667C82.9764 90.1667 77.2812 84.4842 77.2812 77.448V77.448ZM69.75 125.312V103.19L73.8489 107.288V113.849C73.8489 114.47 74.0959 115.067 74.5355 115.506L84.3417 125.312H69.75V125.312ZM78.5364 112.878V106.318C78.5364 105.696 78.2894 105.1 77.8498 104.66L71.745 98.5556L80.7256 95.562L86.0453 120.387L78.5364 112.878ZM90 116.47L85.368 94.8542H94.6322L90 116.47ZM99.2742 95.562L108.255 98.5556L102.15 104.66C101.71 105.1 101.463 105.696 101.463 106.318V112.878L93.9545 120.387L99.2742 95.562ZM110.25 125.312H95.6581L105.464 115.506C105.904 115.067 106.151 114.471 106.151 113.849V107.289L110.25 103.19V125.312ZM122.802 125.312H114.937V101.158C119.746 103.995 122.802 109.193 122.802 114.946V125.312Z" fill="#7E94CB"/>
<path d="M87.4895 82.302H92.5103C93.8047 82.302 94.8541 81.2526 94.8541 79.9583C94.8541 78.6639 93.8047 77.6145 92.5103 77.6145H87.4895C86.1952 77.6145 85.1458 78.6639 85.1458 79.9583C85.1458 81.2526 86.1952 82.302 87.4895 82.302V82.302Z" fill="#7E94CB"/>
</svg>
