<svg width="180" height="180" viewBox="0 0 180 180" fill="none" xmlns="http://www.w3.org/2000/svg">
<path d="M0.5 71.856C0.5 57.0741 1.2927 45.2297 3.39433 35.7732C5.4947 26.3224 8.89576 19.2873 14.0915 14.0915C19.2873 8.89576 26.3224 5.4947 35.7732 3.39433C45.2297 1.2927 57.0741 0.5 71.856 0.5H108.144C122.926 0.5 134.77 1.2927 144.227 3.39433C153.678 5.4947 160.713 8.89576 165.908 14.0915C171.104 19.2873 174.505 26.3224 176.606 35.7732C178.707 45.2297 179.5 57.0741 179.5 71.856V108.144C179.5 122.926 178.707 134.77 176.606 144.227C174.505 153.678 171.104 160.713 165.908 165.908C160.713 171.104 153.678 174.505 144.227 176.606C134.77 178.707 122.926 179.5 108.144 179.5H71.856C57.0741 179.5 45.2297 178.707 35.7732 176.606C26.3224 174.505 19.2873 171.104 14.0915 165.908C8.89576 160.713 5.4947 153.678 3.39433 144.227C1.2927 134.77 0.5 122.926 0.5 108.144V71.856Z" stroke="#7E94CB" stroke-opacity="0.3"/>
<g clip-path="url(#clip0_138_391)">
<path d="M52.3437 130H94.8454C96.14 130 97.1891 128.951 97.1891 127.656V122.656C97.1891 119.601 95.2293 116.995 92.5017 116.028V112.978C92.5017 109.268 89.4829 106.249 85.7726 106.249H61.4166C57.7063 106.249 54.6875 109.268 54.6875 112.978V116.028C51.9598 116.995 50 119.601 50 122.656V127.656C50 128.951 51.0492 130 52.3437 130ZM61.4166 110.937H85.7726C86.898 110.937 87.8142 111.852 87.8142 112.978V115.625H59.3756V112.978C59.3756 111.852 60.2911 110.937 61.4166 110.937ZM54.6875 122.656C54.6875 121.363 55.7391 120.312 57.0312 120.312H90.1573C91.45 120.312 92.5017 121.363 92.5017 122.656V125.312H54.6875V122.656Z" fill="#7E94CB"/>
<path d="M76.9982 98.7939C79.323 101.882 83.7383 102.521 86.8449 100.182C88.914 98.6248 89.8765 96.137 89.5946 93.7335C91.6099 93.3905 93.5575 92.8296 95.4093 92.0733L117.354 121.221C119.679 124.31 124.095 124.947 127.201 122.609C130.298 120.277 130.921 115.86 128.589 112.762L106.645 83.6151C107.882 82.0447 108.96 80.329 109.847 78.4876C112.105 79.4348 114.759 79.1669 116.805 77.6264C119.902 75.2942 120.525 70.8771 118.193 67.7796L106.915 52.7998C104.583 49.7023 100.166 49.0797 97.0683 51.4119C94.9992 52.9695 94.0367 55.4567 94.3187 57.8602C85.4869 59.3647 77.957 65.033 74.0679 73.1037C71.8133 72.1583 69.1717 72.4146 67.1087 73.9673C64.0038 76.305 63.3825 80.7092 65.7201 83.8141L76.9982 98.7939ZM103.387 87.0825L106.517 91.2396L102.772 94.0588L99.6421 89.9023C100.968 89.0704 102.221 88.1268 103.387 87.0825ZM124.381 118.864C123.348 119.642 121.876 119.434 121.098 118.401L105.591 97.8039L109.336 94.9847L124.843 115.582C125.621 116.614 125.413 118.086 124.381 118.864ZM99.8881 55.157C100.924 54.377 102.395 54.5906 103.171 55.6196L114.448 70.5994C115.226 71.6315 115.018 73.1043 113.985 73.8813C112.951 74.6607 111.483 74.4538 110.703 73.4186L99.4254 58.4388C98.6479 57.4061 98.8554 55.934 99.8881 55.157ZM96.4585 62.2914C97.4736 63.6402 105.148 73.8343 106.18 75.2045C102.981 82.9804 95.8146 88.3777 87.4553 89.3024L77.7336 76.3886C80.9361 68.6036 88.0913 63.2173 96.4585 62.2914ZM69.9285 77.7124C70.9606 76.9348 72.4297 77.1381 73.2103 78.1751L84.4884 93.1549C84.4884 93.1549 84.4884 93.1549 84.4884 93.1555C85.2653 94.1876 85.0578 95.6598 84.0257 96.4373C82.993 97.2143 81.5209 97.0068 80.7433 95.9747L69.4652 80.9949C68.6864 79.9597 68.8933 78.4919 69.9285 77.7124Z" fill="#7E94CB"/>
</g>
<defs>
<clipPath id="clip0_138_391">
<rect width="80" height="80" fill="white" transform="translate(50 50)"/>
</clipPath>
</defs>
</svg>
